<?xml version="1.0" encoding="utf-8"?>
<!-- Generator: Adobe Illustrator 19.2.1, SVG Export Plug-In . SVG Version: 6.00 Build 0)  -->
<svg version="1.1" id="Layer_1" xmlns="http://www.w3.org/2000/svg" xmlns:xlink="http://www.w3.org/1999/xlink" x="0px" y="0px"
	 viewBox="0 0 280.1 90.5" style="enable-background:new 0 0 280.1 90.5;" xml:space="preserve">
<style type="text/css">
	.st0{fill:#FFFFFF;}
</style>
<g>
	<path class="st0" d="M84,12c-2.7,18.7-3.4,34.6-3.4,46.1c0,12.8,0.9,20.2,0.9,20.2C89.7,36,100.9,4.2,119,4.2c5,0,8.2,1.5,10.6,4.1
		l-4.4,5.1c-1.4-2.2-4.1-3.2-7.5-3.2c-16.1,0-25.6,32.4-35.4,76.7l-7.2-0.9c-1.1-4.8-1.5-11.5-1.5-18.7c0-19.7,3.1-43.3,3.1-43.3
		c-5.3,13.5-10.8,38.9-16,62.4L55,85c-2.1-7.4-2.4-14.7-2.4-22c0-3.2,0.1-6.5,0.1-9.8c0-17.1-2.6-37.2-21.2-37.2
		C18.4,16.1,9.9,26.8,9.9,41C9.9,52.6,16.8,58,23.5,58c7.5,0,13-5.5,14.5-15.4l6.7,1.6c-2.3,12.2-10.5,18.1-21,18.1
		c-12,0-20.7-8.6-20.7-21.9C3.1,23.6,14.6,12,32,12c13.4,0,21.7,7.1,25.1,17.8c2.4,7.6,2.8,16.6,2.8,24.8c0,4.3-0.1,8.5-0.1,12.2
		c0,3.9,0.1,7.1,0.6,9.4c4-20.4,11-52.3,18.1-65.5L84,12z"/>
	<path class="st0" d="M118.6,51.5c0.4,0,2,0.6,2,1c-3.6,9.4-7.2,16.9-14.3,16.9c-6.3,0-8.9-5.8-8.9-12.5c0-9.8,5.4-21.7,13.5-21.7
		c3.6,0,5.4,2.6,5.4,5.9c0,5.1-4.3,12-12.8,13.4c0,0.4,0,0.7,0,1.1c0,4.3,1.2,7.8,4.5,7.8C112.3,63.3,115.8,58.8,118.6,51.5z
		 M103.7,51.7c5.4-2.7,7.8-7.6,7.8-10.3c0-1.1-0.4-1.8-1.2-1.8C107.4,39.6,104.6,45.7,103.7,51.7z"/>
	<path class="st0" d="M134.8,51.5c0.4,0,1.7,0.6,1.7,0.9c0,0.1,0,0.1,0,0.1c-4.2,11.5-7.6,16.9-12.2,16.9c-4.3,0-6-4.2-6-11.7
		c0-5.3,0.9-12.2,2.3-20.4c3.2-18.1,7.8-26.2,12-26.2c3.7,0,4.8,3,4.8,6.7c0,4.2-1.4,9.4-2.2,11.6c-3,9.4-7.8,16.5-10.7,20
		c-0.4,3.1-0.6,5.9-0.6,8.2c0,4.8,1.1,6.3,2.7,6.3C129,63.9,131.8,59.5,134.8,51.5z M133.5,15.9c-1.9,0-6.2,15.6-8.3,28.9
		c3.6-6.6,8.9-18.6,9-27.4C134.2,16.5,133.8,15.9,133.5,15.9z"/>
	<path class="st0" d="M146.2,49.9c1.4-2.4,2.4-5.6,2.4-7.8c0-1.5-0.4-2.5-1.4-2.5c-3.7,0-7,8.6-7,15.4c0,4.5,1.4,8.3,5.1,8.3
		c3.5,0,7.3-3.9,10.5-11.8c0.4,0,2,0.6,2,1c-2.2,5.8-7.7,16.9-15.3,16.9c-5.6,0-8.1-5.8-8.1-12.6c0-9.8,5-21.7,13-21.7
		c4.1,0,5.8,3.3,5.8,7.5c0,3.1-0.9,6.6-2.4,9.7L146.2,49.9z"/>
	<path class="st0" d="M181.4,52.5c-1.7,4.3-4.9,7.3-8.4,8.6c-2.4,5.3-6.1,8.4-10.7,8.4c-5,0-7.1-5.2-7.1-11.7c0-4,0.8-8.6,2.2-12.8
		l2.6,0.6c0.8-5.5,3.8-10.4,8.9-10.4c4.8,0,7.3,5.5,7.3,12c0,3.5-0.9,7.2-1.8,10.4c1.9-0.9,3.6-2.7,4.9-6
		C179.8,51.5,181.4,52.1,181.4,52.5z M166.5,61.1c-3-1.2-5-4-6-7.5c-0.1,1.1-0.2,2.2-0.2,3.1c0,4.2,1.2,7.2,3,7.2
		c0.2,0,0.4,0,0.6-0.1C164.8,63.6,165.7,62.6,166.5,61.1z M163.6,49.5c0,3.9,1.2,7.6,4.4,8.6c1.6-3.8,2.7-8.9,2.7-12.7
		c0-3.2-0.8-5.7-2.8-5.7c-0.1,0-0.4,0.1-0.5,0.1C165.3,40.3,163.6,44.9,163.6,49.5z"/>
	<path class="st0" d="M175.8,68.7c0,0,0.6-6.6,2.7-12c1.4-8.1,2.7-15.4,3.5-20.9h6.2l-0.9,5.4c2.2-3.7,4.8-6.2,7.8-6.2
		c2.8,0,4,2.2,4,5c0,0.5-0.1,1.2-0.1,1.8c2.5-4.2,5.6-6.8,9-6.8c2.5,0,4.2,1.7,4.2,5.1c0,6.7-4.7,15.3-4.7,21.2
		c0,2.1,0.8,2.4,1.4,2.4c1.9,0,4.2-4,7.4-12.3c0.4,0,2,0.6,2,1c-3.2,8.2-6.4,16.6-12.3,16.6c-2.5,0-4.9-2-4.9-6.4
		c0-7.8,4.7-15.8,4.7-21c0-0.8-0.4-1.4-1.2-1.4c-1.8,0-5,3.5-7.5,14c-1.1,5.8-2.3,11.7-3,14.4h-6.6c1.7-7.9,5-23.3,5-26.4
		c0-1.2-0.4-1.5-0.9-1.5c-2.3,0-5.3,5.6-7.3,15.9l-2.3,12H175.8z"/>
	<path class="st0" d="M259.6,35.5c-18,0-17.3,33.9-35,33.9c-6.3,0-8.9-5.8-8.9-12.5c0-9.8,5.4-21.7,13.5-21.7c3.6,0,5.4,2.6,5.4,5.9
		c0,5.2-4.4,12.1-13,13.5c-0.1,1.2-0.2,2.2-0.2,3.2c0,4.5,1.2,8.1,4.5,8.1c8.4,0,12.1-34,33.7-34V35.5z M222,51.7
		c5.4-2.7,7.8-7.6,7.8-10.3c0-1.1-0.4-1.8-1.2-1.8C225.8,39.6,223.1,45.5,222,51.7z"/>
</g>
</svg>
