<?xml version="1.0" encoding="utf-8"?>
<!-- Generator: Adobe Illustrator 19.2.1, SVG Export Plug-In . SVG Version: 6.00 Build 0)  -->
<svg version="1.1" id="Layer_1" xmlns="http://www.w3.org/2000/svg" xmlns:xlink="http://www.w3.org/1999/xlink" x="0px" y="0px"
	 viewBox="0 0 252 252" style="enable-background:new 0 0 252 252;" xml:space="preserve">
<style type="text/css">
	.st0{fill:none;stroke:#FFFFFF;stroke-width:5;stroke-miterlimit:10;}
	.st1{fill:#FFFFFF;}
	.st2{fill:none;}
	
</style>
<g>
	<rect id="_x3C_border_x3E_" x="18" y="18" class="st0" width="216" height="216"/>
	<g id="_x3C_in_x3E_">
		<path class="st1" d="M99.5,155.4h5.9v40.9h-5.9V155.4z"/>
		<path class="st1" d="M146.9,155.4h5.6v40.9h-5l-27.4-31.5v31.5h-5.5v-40.9h4.7l27.6,31.8V155.4z"/>
	</g>
	<line class="st2" x1="100.9" y1="126" x2="100.9" y2="126"/>
	<g id="_x3C_hat_x3E_">
		<path class="st0" d="M100.5,100l1.7,37.1h47l2.1-37.1c0,0,17.7-2.4,17.1-21.2c0,0-2.1-19.9-24.2-17.1c0,0-4.2-11.1-17.4-10.9
			c0,0-11.1-0.8-17.3,11.3c0,0-16.5-5.6-24.4,11.5c0,0-6.8,17.1,12,25.4L100.5,100z"/>
		<line class="st0" x1="101.1" y1="124.9" x2="149.8" y2="124.9"/>
	</g>
</g>
</svg>
