<?xml version="1.0" encoding="utf-8"?>
<!-- Generator: Adobe Illustrator 19.2.1, SVG Export Plug-In . SVG Version: 6.00 Build 0)  -->
<svg version="1.1" id="Layer_1" xmlns="http://www.w3.org/2000/svg" xmlns:xlink="http://www.w3.org/1999/xlink" x="0px" y="0px"
	 viewBox="0 0 100 54.1" style="enable-background:new 0 0 100 54.1;" xml:space="preserve">
<style type="text/css">
	.st0{fill:#FFFFFF;}
</style>
<g>
	<g>
		<path class="st0" d="M4.6,14.3h4.6v13.6H4.6V14.3z M7.2,26.3V15.9H6.6v10.4H7.2z"/>
		<path class="st0" d="M10.6,14.3h3.6l3.8,5.3v-5.3h4.3v13.6h-3.6l-3.7-5.2v5.2h-4.3V14.3z M13.1,26.3v-9.4l6.7,9.4h0.5V15.9h-0.5
			v9.4l-6.7-9.4h-0.5v10.4H13.1z"/>
		<path class="st0" d="M27.5,21.1c0-1,0.2-1.9,0.6-2.8c0.4-0.9,0.9-1.6,1.5-2.3c0.6-0.6,1.4-1.2,2.3-1.5c0.9-0.4,1.8-0.6,2.8-0.6
			s1.9,0.2,2.8,0.6c0.9,0.4,1.6,0.9,2.3,1.5c0.6,0.6,1.2,1.4,1.5,2.3c0.4,0.9,0.6,1.8,0.6,2.8s-0.2,1.9-0.6,2.8
			c-0.4,0.9-0.9,1.6-1.5,2.3c-0.6,0.6-1.4,1.2-2.3,1.5c-0.9,0.4-1.8,0.6-2.8,0.6s-1.9-0.2-2.8-0.6c-0.9-0.4-1.6-0.9-2.3-1.5
			c-0.6-0.6-1.2-1.4-1.5-2.3C27.6,23,27.5,22.1,27.5,21.1z M29.4,21.1c0,0.7,0.1,1.4,0.4,2c0.3,0.6,0.6,1.2,1.1,1.7
			c0.5,0.5,1,0.9,1.7,1.1c0.6,0.3,1.3,0.4,2,0.4c0.7,0,1.4-0.1,2-0.4c0.6-0.3,1.2-0.6,1.7-1.1c0.5-0.5,0.9-1,1.1-1.7
			c0.3-0.6,0.4-1.3,0.4-2c0-0.7-0.1-1.4-0.4-2c-0.3-0.6-0.6-1.2-1.1-1.7c-0.5-0.5-1-0.9-1.7-1.1c-0.6-0.3-1.3-0.4-2-0.4
			c-0.7,0-1.4,0.1-2,0.4c-0.6,0.3-1.2,0.6-1.7,1.1c-0.5,0.5-0.9,1-1.1,1.7C29.5,19.7,29.4,20.4,29.4,21.1z M34.6,25.8
			c-0.7,0-1.3-0.1-1.8-0.4c-0.6-0.2-1.1-0.6-1.5-1c-0.4-0.4-0.8-0.9-1-1.5c-0.2-0.6-0.4-1.2-0.4-1.8c0-0.7,0.1-1.3,0.4-1.8
			c0.2-0.6,0.6-1.1,1-1.5c0.4-0.4,0.9-0.8,1.5-1c0.6-0.2,1.2-0.4,1.8-0.4c0.7,0,1.3,0.1,1.8,0.4c0.6,0.2,1.1,0.6,1.5,1
			c0.4,0.4,0.8,0.9,1,1.5c0.2,0.6,0.4,1.2,0.4,1.8c0,0.7-0.1,1.3-0.4,1.8c-0.2,0.6-0.6,1.1-1,1.5c-0.4,0.4-0.9,0.8-1.5,1
			C35.9,25.7,35.3,25.8,34.6,25.8z M31.7,21.1c0,0.4,0.1,0.8,0.2,1.1c0.1,0.3,0.4,0.7,0.6,0.9c0.3,0.3,0.6,0.5,0.9,0.6
			c0.3,0.2,0.7,0.2,1.1,0.2c0.4,0,0.8-0.1,1.1-0.2c0.3-0.1,0.7-0.4,0.9-0.6c0.3-0.3,0.5-0.6,0.6-0.9c0.1-0.3,0.2-0.7,0.2-1.1
			c0-0.4-0.1-0.8-0.2-1.1s-0.4-0.7-0.6-0.9c-0.3-0.3-0.6-0.5-0.9-0.6c-0.3-0.1-0.7-0.2-1.1-0.2c-0.4,0-0.8,0.1-1.1,0.2
			c-0.3,0.2-0.7,0.4-0.9,0.6c-0.3,0.3-0.5,0.6-0.6,0.9S31.7,20.7,31.7,21.1z"/>
		<path class="st0" d="M42.9,14.3h4.7c0.9,0,1.7,0.1,2.4,0.3c0.7,0.2,1.4,0.6,1.9,1c0.5,0.4,1,1,1.3,1.7c0.3,0.7,0.5,1.4,0.5,2.3
			c0,0.7-0.1,1.3-0.3,1.7c-0.2,0.5-0.4,0.9-0.6,1.2c-0.3,0.4-0.6,0.7-0.9,0.9l2.6,4.5h-5.1l-2-3.5v3.5h-4.4V14.3z M47.1,23.2
			c0.5,0,1-0.1,1.6-0.2l1.9,3.3h0.6l-2-3.4c0.7-0.3,1.3-0.7,1.8-1.2c0.4-0.5,0.7-1.2,0.7-2.1c0-0.6-0.1-1.1-0.3-1.6
			c-0.2-0.4-0.5-0.8-1-1.1c-0.4-0.3-0.9-0.5-1.4-0.7c-0.5-0.2-1.1-0.2-1.8-0.2h-2.2v10.4h0.5v-3.1H47.1z M45.5,22.7v-6.3h1.7
			c1.2,0,2.2,0.3,2.9,0.8c0.7,0.5,1.1,1.3,1.1,2.3c0,1-0.4,1.8-1.1,2.3c-0.7,0.5-1.7,0.8-2.9,0.8H45.5z M47.2,21h0.2
			c0.5,0,1-0.1,1.3-0.3c0.4-0.2,0.5-0.6,0.5-1.2c0-0.5-0.2-0.9-0.5-1.2C48.4,18.1,48,18,47.5,18h-0.2V21z"/>
		<path class="st0" d="M58.6,21.1c0-1,0.2-1.9,0.6-2.8c0.4-0.9,0.9-1.6,1.5-2.3c0.6-0.6,1.4-1.2,2.3-1.5c0.9-0.4,1.8-0.6,2.8-0.6
			s1.9,0.2,2.8,0.6c0.9,0.4,1.6,0.9,2.3,1.5c0.6,0.6,1.2,1.4,1.5,2.3c0.4,0.9,0.6,1.8,0.6,2.8s-0.2,1.9-0.6,2.8
			c-0.4,0.9-0.9,1.6-1.5,2.3c-0.6,0.6-1.4,1.2-2.3,1.5c-0.9,0.4-1.8,0.6-2.8,0.6s-1.9-0.2-2.8-0.6c-0.9-0.4-1.6-0.9-2.3-1.5
			c-0.6-0.6-1.2-1.4-1.5-2.3C58.8,23,58.6,22.1,58.6,21.1z M60.5,21.1c0,0.7,0.1,1.4,0.4,2c0.3,0.6,0.6,1.2,1.1,1.7
			c0.5,0.5,1,0.9,1.7,1.1c0.6,0.3,1.3,0.4,2,0.4s1.4-0.1,2-0.4c0.6-0.3,1.2-0.6,1.7-1.1c0.5-0.5,0.9-1,1.1-1.7
			c0.3-0.6,0.4-1.3,0.4-2c0-0.7-0.1-1.4-0.4-2c-0.3-0.6-0.6-1.2-1.1-1.7c-0.5-0.5-1-0.9-1.7-1.1c-0.6-0.3-1.3-0.4-2-0.4
			s-1.4,0.1-2,0.4c-0.6,0.3-1.2,0.6-1.7,1.1c-0.5,0.5-0.9,1-1.1,1.7C60.6,19.7,60.5,20.4,60.5,21.1z M65.7,25.8
			c-0.7,0-1.3-0.1-1.8-0.4c-0.6-0.2-1.1-0.6-1.5-1c-0.4-0.4-0.8-0.9-1-1.5c-0.2-0.6-0.4-1.2-0.4-1.8c0-0.7,0.1-1.3,0.4-1.8
			c0.2-0.6,0.6-1.1,1-1.5c0.4-0.4,0.9-0.8,1.5-1c0.6-0.2,1.2-0.4,1.8-0.4c0.7,0,1.3,0.1,1.8,0.4c0.6,0.2,1.1,0.6,1.5,1
			c0.4,0.4,0.8,0.9,1,1.5c0.2,0.6,0.4,1.2,0.4,1.8c0,0.7-0.1,1.3-0.4,1.8c-0.2,0.6-0.6,1.1-1,1.5c-0.4,0.4-0.9,0.8-1.5,1
			C67,25.7,66.4,25.8,65.7,25.8z M62.9,21.1c0,0.4,0.1,0.8,0.2,1.1c0.1,0.3,0.4,0.7,0.6,0.9c0.3,0.3,0.6,0.5,0.9,0.6
			c0.3,0.2,0.7,0.2,1.1,0.2c0.4,0,0.8-0.1,1.1-0.2c0.3-0.1,0.7-0.4,0.9-0.6c0.3-0.3,0.5-0.6,0.6-0.9c0.1-0.3,0.2-0.7,0.2-1.1
			c0-0.4-0.1-0.8-0.2-1.1c-0.1-0.3-0.4-0.7-0.6-0.9c-0.3-0.3-0.6-0.5-0.9-0.6c-0.3-0.1-0.7-0.2-1.1-0.2c-0.4,0-0.8,0.1-1.1,0.2
			c-0.3,0.2-0.7,0.4-0.9,0.6c-0.3,0.3-0.5,0.6-0.6,0.9C62.9,20.4,62.9,20.7,62.9,21.1z"/>
		<path class="st0" d="M79.6,28.3c-0.9,0-1.6-0.1-2.3-0.3c-0.7-0.2-1.3-0.5-1.8-1c-0.5-0.4-0.9-1-1.1-1.7c-0.3-0.7-0.4-1.5-0.4-2.3
			v-8.7h4.4v8.5c0,0.5,0.1,0.8,0.3,1.1c0.2,0.3,0.5,0.4,1,0.4c0.5,0,0.8-0.1,1-0.4c0.2-0.3,0.3-0.6,0.3-1.1v-8.5h4.4V23
			c0,0.9-0.1,1.7-0.4,2.3c-0.3,0.7-0.6,1.2-1.1,1.7c-0.5,0.4-1.1,0.8-1.8,1C81.2,28.2,80.4,28.3,79.6,28.3z M79.6,25.8
			c-2,0-3.1-1-3.1-3v-6.9H76v6.9c0,1.1,0.3,2,0.9,2.6c0.6,0.6,1.5,0.9,2.7,0.9c1.2,0,2-0.3,2.7-0.9c0.6-0.6,0.9-1.5,0.9-2.6v-6.9
			h-0.6v6.9C82.6,24.8,81.6,25.8,79.6,25.8z"/>
		<path class="st0" d="M88.4,17.9h-2.5v-3.6h9.5v3.6h-2.5v10.1h-4.5V17.9z M90.9,26.3v-9.9h2.9v-0.5h-6.4v0.5h2.9v9.9H90.9z"/>
	</g>
	<g>
		<path class="st0" d="M19.7,33.5l-0.4,1.7h0.1c0.6,0,1-0.7,1-1.3c0-0.4-0.2-0.8-0.8-0.8c-1.2,0-2,0.7-2,1.8c0,0.4,0.1,0.4,0.1,0.5
			c-0.5,0-0.8-0.2-0.8-0.7c0-1,1.4-1.9,2.6-1.9c1.2,0,1.7,0.6,1.7,1.2c0,0.5-0.3,1-0.8,1.3c0.4,0.1,0.5,0.4,0.5,0.7
			c0,0.6-0.4,1.4-0.4,1.9c0,0.2,0.1,0.4,0.3,0.5c-0.3,0.1-0.6,0.1-0.7,0.1c-0.5,0-0.6-0.3-0.6-0.5c0-0.5,0.4-1.4,0.4-1.9
			c0-0.3-0.1-0.5-0.4-0.5c-0.1,0-0.1,0-0.2,0l-0.6,2.8h-1.1l1-4.7L19.7,33.5z"/>
		<path class="st0" d="M22.9,37.7c0.6,0,0.9-0.3,1.3-0.7h0.3c-0.4,0.7-1,1.4-2,1.4c-0.7,0-1.2-0.3-1.2-1.2c0-0.8,0.5-2.6,2-2.6
			c0.7,0,0.8,0.3,0.8,0.7c0,0.8-0.8,1.5-1.7,1.6c0,0.1,0,0.2,0,0.3C22.4,37.6,22.5,37.7,22.9,37.7z M23.3,34.9
			c-0.4,0-0.7,0.8-0.9,1.5c0.6,0,1.1-0.6,1.1-1.2C23.5,35,23.5,34.9,23.3,34.9z"/>
		<path class="st0" d="M26.3,35.2c0-0.2-0.1-0.3-0.2-0.3c-0.5,0-0.9,1.4-0.9,2.2c0,0.5,0.2,0.6,0.5,0.6c0.6,0,0.9-0.3,1.3-0.7h0.3
			c-0.4,0.7-1,1.4-2,1.4c-0.7,0-1.2-0.3-1.2-1.2c0-0.9,0.5-2.6,2-2.6c0.7,0,0.8,0.3,0.8,0.7c0,0.4-0.2,0.5-0.4,0.5
			c-0.1,0-0.2,0-0.3-0.1C26.3,35.5,26.3,35.4,26.3,35.2z"/>
		<path class="st0" d="M28.6,37.7c0.6,0,0.9-0.3,1.3-0.7h0.3c-0.4,0.7-1,1.4-2,1.4c-0.7,0-1.2-0.3-1.2-1.2c0-0.8,0.5-2.6,2-2.6
			c0.7,0,0.8,0.3,0.8,0.7c0,0.8-0.8,1.5-1.7,1.6c0,0.1,0,0.2,0,0.3C28,37.6,28.2,37.7,28.6,37.7z M29,34.9c-0.4,0-0.7,0.8-0.9,1.5
			c0.6,0,1.1-0.6,1.1-1.2C29.2,35,29.1,34.9,29,34.9z"/>
		<path class="st0" d="M31.4,34.6l-0.5,2.5c0,0.1,0,0.2,0,0.2c0,0.2,0.1,0.3,0.3,0.3c0.3,0,0.6-0.3,0.7-0.6h0.3
			c-0.4,1.2-1.2,1.4-1.5,1.4c-0.4,0-0.8-0.3-0.8-0.9c0-0.1,0-0.3,0.1-0.5l0.5-2.4H31.4z M31.1,33c0.3,0,0.6,0.3,0.6,0.6
			c0,0.3-0.3,0.6-0.6,0.6c-0.3,0-0.6-0.3-0.6-0.6C30.5,33.3,30.8,33,31.1,33z"/>
		<path class="st0" d="M33.5,34.3l-0.1,0.6c0.2-0.2,0.5-0.3,0.9-0.3c0.5,0,0.9,0.3,0.9,1.2c0,1-0.4,2.6-1.8,2.6
			c-0.4,0-0.5-0.1-0.6-0.3l-0.4,1.8l-1.1,0.3l1.2-5.8H33.5z M34.1,35.7c0-0.6-0.2-0.6-0.4-0.6c-0.2,0-0.4,0.1-0.5,0.4l-0.4,2.1
			c0,0.1,0.1,0.2,0.3,0.2C33.8,37.7,34.1,36.4,34.1,35.7z"/>
		<path class="st0" d="M36.8,37.7c0.6,0,0.9-0.3,1.3-0.7h0.3c-0.4,0.7-1,1.4-2,1.4c-0.7,0-1.2-0.3-1.2-1.2c0-0.8,0.5-2.6,2-2.6
			c0.7,0,0.8,0.3,0.8,0.7c0,0.8-0.8,1.5-1.7,1.6c0,0.1,0,0.2,0,0.3C36.3,37.6,36.5,37.7,36.8,37.7z M37.2,34.9
			c-0.4,0-0.7,0.8-0.9,1.5c0.6,0,1.1-0.6,1.1-1.2C37.4,35,37.4,34.9,37.2,34.9z"/>
		<path class="st0" d="M40.3,34.4c0.1,1.9,0.2,2.2,0.2,2.7c0,1-0.9,1.3-1.5,1.3c-0.8,0-1.1-0.5-1.1-0.9c0-0.3,0.2-0.6,0.4-0.7
			c0.4-0.7,0.7-1.5,0.9-2.2L40.3,34.4z M38.5,37.3c-0.1,0-0.2,0-0.2-0.1c0,0.3,0.1,0.5,0.5,0.5c0.3,0,0.6-0.2,0.6-0.7
			c0-0.4-0.1-0.6-0.1-1.7c-0.1,0.5-0.4,0.9-0.6,1.4c0.1,0,0.2,0.1,0.2,0.3C38.8,37.1,38.7,37.3,38.5,37.3z"/>
		<path class="st0" d="M47.1,35.2c0,0.4-0.5,0.9-1.1,1c-0.6,2-1.6,2.1-2.3,2.1c-1,0-1.5-0.7-1.5-1.5c0-0.7,0.4-1.4,1.3-1.6
			c-0.5-0.3-0.7-0.7-0.7-1.1c0-0.7,0.6-1.3,1.6-1.3c0.7,0,1.4,0.3,1.4,1c0,0.4-0.1,0.7-0.5,0.7c-0.1,0-0.3,0-0.4-0.2
			c0.2-0.1,0.3-0.4,0.3-0.6c0-0.1,0-0.5-0.5-0.5c-0.5,0-0.9,0.4-0.9,0.9c0,0.4,0.3,0.9,1,1.2c-0.9,0.4-1.3,1-1.3,1.5
			c0,0.5,0.4,1,0.9,1c0.5,0,1.1-0.3,1.3-1.4c-0.2,0-0.4,0-0.5,0c-0.3,0-0.6,0.1-0.7,0.3l-0.1,0c0.1-0.6,0.7-1,1.4-1
			c0.2,0,0.4,0,0.6,0C46.6,35.6,46.9,35.5,47.1,35.2L47.1,35.2z"/>
		<path class="st0" d="M51.5,33.5l-0.4,1.7h0.1c0.6,0,1-0.7,1-1.3c0-0.4-0.2-0.8-0.8-0.8c-1.2,0-2,0.7-2,1.8c0,0.4,0.1,0.4,0.1,0.5
			c-0.5,0-0.8-0.2-0.8-0.7c0-1,1.4-1.9,2.6-1.9c1.2,0,1.7,0.6,1.7,1.2c0,0.5-0.3,1-0.8,1.3c0.4,0.1,0.5,0.4,0.5,0.7
			c0,0.6-0.4,1.4-0.4,1.9c0,0.2,0.1,0.4,0.3,0.5c-0.3,0.1-0.6,0.1-0.7,0.1c-0.5,0-0.6-0.3-0.6-0.5c0-0.5,0.4-1.4,0.4-1.9
			c0-0.3-0.1-0.5-0.4-0.5c-0.1,0-0.1,0-0.2,0l-0.6,2.8h-1.1l1-4.7L51.5,33.5z"/>
		<path class="st0" d="M54.7,37.7c0.6,0,0.9-0.3,1.3-0.7h0.3c-0.4,0.7-1,1.4-2,1.4c-0.7,0-1.2-0.3-1.2-1.2c0-0.8,0.5-2.6,2-2.6
			c0.7,0,0.8,0.3,0.8,0.7c0,0.8-0.8,1.5-1.7,1.6c0,0.1,0,0.2,0,0.3C54.1,37.6,54.3,37.7,54.7,37.7z M55.1,34.9
			c-0.4,0-0.7,0.8-0.9,1.5c0.6,0,1.1-0.6,1.1-1.2C55.3,35,55.2,34.9,55.1,34.9z"/>
		<path class="st0" d="M59.1,37c-0.4,0.4-0.8,0.7-1.1,0.9c-0.3,0.3-0.8,0.4-1.2,0.4c-0.8,0-1.1-0.5-1.1-0.9c0-0.3,0.2-0.6,0.4-0.7
			c0.4-0.7,0.7-1.5,0.9-2.2l1.1-0.1c0.1,1.9,0.2,2.2,0.2,2.7c0,0.1,0,0.2,0,0.3c0.2-0.1,0.4-0.3,0.5-0.4H59.1z M56.3,37.3
			c-0.1,0-0.2,0-0.2-0.1c0,0.3,0.1,0.5,0.5,0.5c0.3,0,0.6-0.2,0.6-0.7c0-0.4-0.1-0.6-0.1-1.7c-0.1,0.5-0.4,0.9-0.6,1.4
			c0.1,0,0.2,0.1,0.2,0.3C56.6,37.1,56.5,37.3,56.3,37.3z"/>
		<path class="st0" d="M60.6,33.4l-0.3,1.2h0.4l-0.1,0.3h-0.4l-0.5,2.2c0,0.1,0,0.2,0,0.2c0,0.2,0.1,0.3,0.3,0.3
			c0.3,0,0.6-0.3,0.7-0.6h0.3c-0.4,1.2-1.2,1.4-1.5,1.4c-0.4,0-0.8-0.3-0.8-0.9c0-0.1,0-0.3,0.1-0.5l0.4-2.1H59l0.1-0.3h0.2l0.2-1
			L60.6,33.4z"/>
		<path class="st0" d="M64.3,34.6l-0.5,2.5c0,0.1,0,0.2,0,0.2c0,0.2,0.1,0.3,0.3,0.3c0.3,0,0.5-0.3,0.6-0.7h0.3
			c-0.4,1.2-1.1,1.4-1.5,1.4c-0.4,0-0.7-0.2-0.7-0.7c-0.2,0.3-0.6,0.7-1.1,0.7c-0.5,0-1-0.3-1-1.2c0-1,0.6-2.6,1.9-2.6
			c0.4,0,0.6,0.2,0.6,0.4V35l0.1-0.4H64.3z M61.7,37c0,0.6,0.2,0.6,0.4,0.6c0.2,0,0.5-0.2,0.6-0.6l0.4-1.7c0-0.1-0.1-0.3-0.3-0.3
			C62.1,35,61.7,36.4,61.7,37z"/>
		<path class="st0" d="M68,34.6l-0.5,2.5c0,0.1,0,0.2,0,0.2c0,0.2,0.1,0.3,0.3,0.3c0.3,0,0.5-0.3,0.6-0.6h0.3
			c-0.4,1.2-1.1,1.4-1.5,1.4c-0.4,0-0.7-0.2-0.7-0.7c-0.4,0.6-0.8,0.7-1.1,0.7c-0.4,0-0.8-0.3-0.8-0.9c0-0.1,0-0.3,0.1-0.5l0.5-2.4
			h1.1l-0.5,2.5c0,0.1,0,0.1,0,0.2c0,0.2,0.1,0.3,0.2,0.3c0.3,0,0.5-0.3,0.6-0.6l0.5-2.4H68z"/>
		<path class="st0" d="M69.9,34.6l-0.1,0.5c0.3-0.2,0.5-0.5,0.9-0.5c0.3,0,0.5,0.3,0.5,0.6c0,0.3-0.2,0.5-0.5,0.5
			c-0.4,0-0.2-0.5-0.4-0.5s-0.4,0.1-0.5,0.3l-0.6,2.8h-1.1l0.8-3.7H69.9z"/>
		<path class="st0" d="M74.7,34.6l-0.5,2.5c0,0.1,0,0.2,0,0.2c0,0.2,0.1,0.3,0.3,0.3c0.3,0,0.5-0.3,0.6-0.7h0.3
			c-0.4,1.2-1.1,1.4-1.5,1.4c-0.4,0-0.7-0.2-0.7-0.7c-0.2,0.3-0.6,0.7-1.1,0.7c-0.5,0-1-0.3-1-1.2c0-1,0.6-2.6,1.9-2.6
			c0.4,0,0.6,0.2,0.6,0.4V35l0.1-0.4H74.7z M72.1,37c0,0.6,0.2,0.6,0.4,0.6c0.2,0,0.5-0.2,0.6-0.6l0.4-1.7c0-0.1-0.1-0.3-0.3-0.3
			C72.5,35,72.1,36.4,72.1,37z"/>
		<path class="st0" d="M76.9,35.2c-0.3,0-0.5,0.3-0.6,0.7l-0.5,2.4h-1.1l0.8-3.7h1.1L76.5,35c0.3-0.4,0.6-0.4,0.9-0.4
			c0.5,0,0.8,0.2,0.8,0.8c0,0.6-0.4,1.5-0.4,1.9c0,0.2,0.1,0.3,0.3,0.3c0.3,0,0.5-0.3,0.6-0.6H79c-0.4,1.2-1,1.4-1.4,1.4
			c-0.6,0-0.9-0.4-0.9-0.8c0-0.5,0.3-1.4,0.3-1.9C77.1,35.4,77,35.2,76.9,35.2z"/>
		<path class="st0" d="M80.5,33.4l-0.3,1.2h0.4l-0.1,0.3h-0.4l-0.5,2.2c0,0.1,0,0.2,0,0.2c0,0.2,0.1,0.3,0.3,0.3
			c0.3,0,0.6-0.3,0.7-0.6H81c-0.4,1.2-1.2,1.4-1.5,1.4c-0.4,0-0.8-0.3-0.8-0.9c0-0.1,0-0.3,0.1-0.5l0.4-2.1h-0.2l0.1-0.3h0.2l0.2-1
			L80.5,33.4z"/>
		<path class="st0" d="M82.9,34.4c0.1,1.9,0.2,2.2,0.2,2.7c0,1-0.9,1.3-1.5,1.3c-0.8,0-1.1-0.5-1.1-0.9c0-0.3,0.2-0.6,0.4-0.7
			c0.4-0.7,0.7-1.5,0.9-2.2L82.9,34.4z M81.1,37.3c-0.1,0-0.2,0-0.2-0.1c0,0.3,0.1,0.5,0.5,0.5c0.3,0,0.6-0.2,0.6-0.7
			c0-0.4-0.1-0.6-0.1-1.7c-0.1,0.5-0.4,0.9-0.6,1.4c0.1,0,0.2,0.1,0.2,0.3C81.4,37.1,81.3,37.3,81.1,37.3z"/>
	</g>
</g>
</svg>
