<?xml version="1.0" encoding="utf-8"?>
<!-- Generator: Adobe Illustrator 19.2.1, SVG Export Plug-In . SVG Version: 6.00 Build 0)  -->
<svg version="1.1" id="Layer_1" xmlns="http://www.w3.org/2000/svg" xmlns:xlink="http://www.w3.org/1999/xlink" x="0px" y="0px"
	 viewBox="0 0 399.7 140.5" style="enable-background:new 0 0 399.7 140.5;" xml:space="preserve">
<style type="text/css">
	.st0{fill:#FFFFFF;}
</style>
<g>
	<g>
		<path class="st0" d="M-52.1-366.7h17v50h-17V-366.7z"/>
		<path class="st0" d="M-28.1-366.7h13.1l13.8,19.3v-19.3h15.7v50H1.3l-13.7-19.2v19.2h-15.7V-366.7z"/>
		<path class="st0" d="M20.9-348h19.8v12.5H20.9V-348z"/>
		<path class="st0" d="M46.7-341.7c0-3.6,0.7-7,2.1-10.2c1.4-3.2,3.2-6,5.6-8.4c2.4-2.4,5.2-4.2,8.4-5.6c3.2-1.4,6.6-2.1,10.2-2.1
			s7,0.7,10.2,2.1c3.2,1.4,6,3.3,8.4,5.6c2.4,2.4,4.2,5.2,5.6,8.4c1.4,3.2,2.1,6.6,2.1,10.2s-0.7,7-2.1,10.2c-1.4,3.2-3.3,6-5.6,8.4
			c-2.4,2.4-5.2,4.3-8.4,5.6c-3.2,1.4-6.6,2.1-10.2,2.1s-7-0.7-10.2-2.1c-3.2-1.4-6-3.2-8.4-5.6c-2.4-2.4-4.3-5.2-5.6-8.4
			C47.4-334.7,46.7-338.1,46.7-341.7z M62.5-341.7c0,1.5,0.3,2.8,0.8,4.1c0.5,1.3,1.3,2.4,2.2,3.3c0.9,1,2.1,1.7,3.3,2.2
			c1.3,0.6,2.6,0.8,4.1,0.8c1.4,0,2.8-0.3,4.1-0.8c1.3-0.5,2.4-1.3,3.3-2.2c0.9-0.9,1.7-2.1,2.2-3.3c0.5-1.3,0.8-2.6,0.8-4.1
			c0-1.4-0.3-2.8-0.8-4.1c-0.6-1.3-1.3-2.4-2.2-3.3c-1-0.9-2.1-1.7-3.3-2.2c-1.3-0.5-2.6-0.8-4.1-0.8c-1.5,0-2.8,0.3-4.1,0.8
			c-1.3,0.6-2.4,1.3-3.3,2.2c-1,1-1.7,2.1-2.2,3.3C62.7-344.5,62.5-343.1,62.5-341.7z"/>
		<path class="st0" d="M105.2-366.7h17.2c3.2,0,6.2,0.4,8.9,1.3c2.7,0.9,5.1,2.1,7.1,3.8c2,1.6,3.6,3.7,4.7,6.1
			c1.1,2.4,1.7,5.2,1.7,8.4c0,2.5-0.4,4.6-1.1,6.4c-0.7,1.8-1.5,3.2-2.3,4.4c-1,1.3-2.1,2.4-3.4,3.3l9.4,16.5h-18.8l-7.5-12.7v12.7
			h-16V-366.7z M121.2-342.1h0.8c1.9,0,3.5-0.4,4.8-1.3c1.3-0.8,2-2.3,2-4.3c0-2-0.7-3.4-2-4.3c-1.3-0.8-2.9-1.3-4.8-1.3h-0.8
			V-342.1z"/>
		<path class="st0" d="M150.1-348h19.8v12.5h-19.8V-348z"/>
		<path class="st0" d="M175.9-341.7c0-3.6,0.7-7,2.1-10.2c1.4-3.2,3.2-6,5.6-8.4c2.4-2.4,5.2-4.2,8.4-5.6c3.2-1.4,6.6-2.1,10.2-2.1
			s7,0.7,10.2,2.1c3.2,1.4,6,3.3,8.4,5.6c2.4,2.4,4.2,5.2,5.6,8.4c1.4,3.2,2.1,6.6,2.1,10.2s-0.7,7-2.1,10.2c-1.4,3.2-3.3,6-5.6,8.4
			c-2.4,2.4-5.2,4.3-8.4,5.6c-3.2,1.4-6.6,2.1-10.2,2.1s-7-0.7-10.2-2.1c-3.2-1.4-6-3.2-8.4-5.6c-2.4-2.4-4.3-5.2-5.6-8.4
			C176.5-334.7,175.9-338.1,175.9-341.7z M191.6-341.7c0,1.5,0.3,2.8,0.8,4.1c0.5,1.3,1.3,2.4,2.2,3.3c0.9,1,2.1,1.7,3.3,2.2
			c1.3,0.6,2.6,0.8,4.1,0.8c1.4,0,2.8-0.3,4.1-0.8c1.3-0.5,2.4-1.3,3.3-2.2c0.9-0.9,1.7-2.1,2.2-3.3c0.5-1.3,0.8-2.6,0.8-4.1
			c0-1.4-0.3-2.8-0.8-4.1c-0.6-1.3-1.3-2.4-2.2-3.3c-1-0.9-2.1-1.7-3.3-2.2c-1.3-0.5-2.6-0.8-4.1-0.8c-1.5,0-2.8,0.3-4.1,0.8
			c-1.3,0.6-2.4,1.3-3.3,2.2c-1,1-1.7,2.1-2.2,3.3C191.9-344.5,191.6-343.1,191.6-341.7z"/>
		<path class="st0" d="M254.8-315.4c-3.1,0-6-0.4-8.6-1.2c-2.5-0.8-4.7-2-6.5-3.6c-1.8-1.6-3.2-3.6-4.2-6.1c-1-2.4-1.5-5.3-1.5-8.6
			v-31.8h16v31.1c0,1.8,0.4,3.1,1.1,4c0.7,0.9,1.9,1.4,3.6,1.4c1.7,0,2.9-0.5,3.6-1.4c0.7-0.9,1.1-2.3,1.1-4v-31.1h16v31.8
			c0,3.3-0.5,6.2-1.5,8.6c-1,2.5-2.4,4.5-4.2,6.1c-1.8,1.6-4,2.8-6.6,3.6C260.8-315.8,258-315.4,254.8-315.4z"/>
		<path class="st0" d="M289.1-353.6h-9.2v-13.1h35v13.1h-9.2v36.9h-16.5V-353.6z"/>
	</g>
	<g>
		<path class="st0" d="M-1.1-293.9l-1.6,7.5h0.3c2.7,0,4.6-3.2,4.6-5.6c0-1.8-1-3.4-3.6-3.4c-5.2,0-8.7,2.9-8.7,7.8
			c0,1.6,0.4,1.9,0.5,2.2c-2.2,0-3.5-0.8-3.5-3.1c0-4.3,5.9-8.4,11.3-8.4c5.1,0,7.3,2.5,7.3,5.2c0,2-1.3,4.2-3.5,5.5
			c1.7,0.5,2.2,1.7,2.2,3.2c0,2.6-1.6,6.1-1.6,8.2c0,1,0.5,1.8,1.3,2.1c-1.4,0.4-2.4,0.5-3.2,0.5c-2.1,0-2.5-1.1-2.5-2.2
			c0-2.1,1.7-6,1.7-8.5c0-1.3-0.5-2.2-1.9-2.2c-0.3,0-0.6,0.1-1.1,0.1l-2.6,12.2h-4.6l4.4-20.5L-1.1-293.9z"/>
		<path class="st0" d="M12.8-275.3c2.5,0,4.1-1.4,5.7-3.3h1.1c-1.8,3-4.6,6-8.9,6c-3,0-5-1.5-5-5.1c0-3.7,2.1-11.5,8.7-11.5
			c2.9,0,3.6,1.5,3.6,3.1c0,3.7-3.6,6.6-7.4,6.8c0,0.5-0.1,0.9-0.1,1.3C10.4-275.8,11.2-275.3,12.8-275.3z M14.6-287.5
			c-1.6,0-3.2,3.5-3.9,6.7c2.5-0.2,4.7-2.6,4.7-5.3C15.4-287,15.2-287.5,14.6-287.5z"/>
		<path class="st0" d="M27.9-286.2c0-0.8-0.3-1.3-0.9-1.3c-2,0-4.1,5.9-4.1,9.5c0,2.2,0.8,2.7,2.3,2.7c2.5,0,4.1-1.4,5.7-3.3H32
			c-1.8,3-4.6,6-8.9,6c-3,0-5-1.5-5-5.1c0-3.7,2.1-11.5,8.7-11.5c2.9,0,3.6,1.5,3.6,3c0,1.6-0.8,2.4-1.7,2.4c-0.4,0-0.7-0.1-1.1-0.4
			C27.7-285,27.9-285.6,27.9-286.2z"/>
		<path class="st0" d="M37.5-275.3c2.5,0,4.1-1.4,5.7-3.3h1.1c-1.8,3-4.6,6-8.9,6c-3,0-5-1.5-5-5.1c0-3.7,2.1-11.5,8.7-11.5
			c2.9,0,3.6,1.5,3.6,3.1c0,3.7-3.6,6.6-7.4,6.8c0,0.5-0.1,0.9-0.1,1.3C35.2-275.8,36-275.3,37.5-275.3z M39.4-287.5
			c-1.6,0-3.2,3.5-3.9,6.7c2.5-0.2,4.7-2.6,4.7-5.3C40.2-287,40-287.5,39.4-287.5z"/>
		<path class="st0" d="M50.1-288.9l-2.3,11c-0.1,0.4-0.1,0.7-0.1,1c0,0.9,0.4,1.2,1.3,1.2c1.3,0,2.4-1.2,2.9-2.8h1.4
			c-1.8,5.3-5,6-6.8,6c-1.9,0-3.5-1.2-3.5-3.9c0-0.6,0.1-1.3,0.3-2.1l2.2-10.4H50.1z M48.6-295.8c1.4,0,2.6,1.2,2.6,2.6
			c0,1.4-1.2,2.6-2.6,2.6s-2.6-1.1-2.6-2.6C46.1-294.6,47.2-295.8,48.6-295.8z"/>
		<path class="st0" d="M59-290.1l-0.5,2.4c0.9-0.8,2.2-1.4,3.8-1.4c2.2,0,3.9,1.3,3.9,5.1c0,4.4-1.7,11.4-7.9,11.4
			c-1.6,0-2.4-0.5-2.7-1.2l-1.7,7.9l-4.9,1.2l5.4-25.4H59z M61.8-284.1c0-2.5-1-2.7-1.6-2.7c-0.7,0-1.6,0.5-2.2,1.6l-1.9,9
			c0.1,0.4,0.5,0.7,1.2,0.7C60.6-275.4,61.8-281,61.8-284.1z"/>
		<path class="st0" d="M73.7-275.3c2.5,0,4.1-1.4,5.7-3.3h1.1c-1.8,3-4.6,6-8.9,6c-3,0-5-1.5-5-5.1c0-3.7,2.1-11.5,8.7-11.5
			c2.9,0,3.6,1.5,3.6,3.1c0,3.7-3.6,6.6-7.4,6.8c0,0.5-0.1,0.9-0.1,1.3C71.3-275.8,72.1-275.3,73.7-275.3z M75.5-287.5
			c-1.6,0-3.2,3.5-3.9,6.7c2.5-0.2,4.7-2.6,4.7-5.3C76.3-287,76.2-287.5,75.5-287.5z"/>
		<path class="st0" d="M88.8-289.9c0.4,8.4,0.7,9.6,0.7,11.8c0,4.2-3.8,5.6-6.5,5.6c-3.3,0-4.7-2.2-4.7-4.1c0-1.5,0.8-2.6,1.7-3
			c1.8-3.2,3-6.4,4-9.6L88.8-289.9z M80.9-277c-0.3,0-0.7-0.1-0.9-0.4c0,1.5,0.5,2.3,2,2.3c1.4,0,2.8-0.7,2.8-3
			c0-1.7-0.3-2.7-0.6-7.7c-0.6,2.1-1.5,4-2.6,6.1c0.4,0.2,0.7,0.6,0.7,1.1C82.4-277.8,81.8-277,80.9-277z"/>
		<path class="st0" d="M118.6-286.1c0,1.8-2.2,4-4.9,4.5c-2.5,8.8-6.9,9-10.1,9c-4.5,0-6.7-3.2-6.7-6.5c0-3.1,1.9-6.3,5.8-7.1
			c-2.2-1.2-3.2-3.1-3.2-4.9c0-2.9,2.6-5.8,7.2-5.8c3,0,5.9,1.2,5.9,4.3c0,1.7-0.6,3-2.3,3c-0.5,0-1.2-0.1-1.8-0.8
			c0.8-0.2,1.4-1.8,1.4-2.6c0-0.5-0.1-2.4-2.1-2.4c-2.4,0-3.9,1.8-3.9,4c0,1.9,1.2,4,4.3,5.3c-4.1,1.7-5.6,4.3-5.6,6.5
			c0,2.4,1.7,4.3,3.8,4.3c2.2,0,4.8-1.4,5.8-6.1c-0.8-0.1-1.5-0.2-2.3-0.2c-1.4,0-2.4,0.5-3,1.5l-0.2,0c0.6-2.6,2.9-4.6,6.2-4.6
			c0.9,0,1.6,0.2,2.5,0.2c1.2,0,2.5-0.4,3.1-1.4H118.6z"/>
		<path class="st0" d="M137.8-293.9l-1.6,7.5h0.3c2.7,0,4.6-3.2,4.6-5.6c0-1.8-1-3.4-3.6-3.4c-5.2,0-8.7,2.9-8.7,7.8
			c0,1.6,0.4,1.9,0.5,2.2c-2.2,0-3.5-0.8-3.5-3.1c0-4.3,5.9-8.4,11.3-8.4c5.1,0,7.3,2.5,7.3,5.2c0,2-1.3,4.2-3.5,5.5
			c1.7,0.5,2.2,1.7,2.2,3.2c0,2.6-1.6,6.1-1.6,8.2c0,1,0.5,1.8,1.3,2.1c-1.4,0.4-2.4,0.5-3.2,0.5c-2.1,0-2.5-1.1-2.5-2.2
			c0-2.1,1.7-6,1.7-8.5c0-1.3-0.5-2.2-1.9-2.2c-0.3,0-0.6,0.1-1.1,0.1l-2.6,12.2h-4.6l4.4-20.5L137.8-293.9z"/>
		<path class="st0" d="M151.7-275.3c2.6,0,4.1-1.4,5.7-3.3h1.1c-1.8,3-4.6,6-8.9,6c-3,0-5-1.5-5-5.1c0-3.7,2.1-11.5,8.7-11.5
			c2.9,0,3.6,1.5,3.6,3.1c0,3.7-3.6,6.6-7.4,6.8c0,0.5-0.1,0.9-0.1,1.3C149.4-275.8,150.1-275.3,151.7-275.3z M153.6-287.5
			c-1.6,0-3.2,3.5-3.9,6.7c2.5-0.2,4.7-2.6,4.7-5.3C154.4-287,154.2-287.5,153.6-287.5z"/>
		<path class="st0" d="M171.1-278.5c-1.7,1.9-3.5,3.2-4.9,4c-1.4,1.4-3.4,1.9-5.1,1.9c-3.3,0-4.7-2.2-4.7-4.1c0-1.5,0.8-2.6,1.7-3
			c1.8-3.2,3-6.4,4-9.6l4.8-0.6c0.4,8.4,0.7,9.6,0.7,11.8c0,0.5,0,0.8-0.1,1.2c0.9-0.5,1.7-1.1,2.3-1.6H171.1z M159-277
			c-0.3,0-0.7-0.1-0.9-0.4c0,1.5,0.5,2.3,2,2.3c1.4,0,2.8-0.7,2.8-3c0-1.7-0.3-2.7-0.6-7.7c-0.6,2.1-1.5,4-2.6,6.1
			c0.4,0.2,0.7,0.6,0.7,1.1C160.4-277.8,159.8-277,159-277z"/>
		<path class="st0" d="M177.7-294l-1.1,5.1h1.9l-0.3,1.3h-1.9l-2.1,9.7c-0.1,0.4-0.1,0.7-0.1,1c0,0.9,0.4,1.2,1.3,1.2
			c1.3,0,2.4-1.2,2.9-2.8h1.4c-1.8,5.3-5,6-6.8,6c-1.9,0-3.5-1.2-3.5-3.9c0-0.6,0.1-1.3,0.3-2.1l1.9-9.1h-1.1l0.3-1.3h1.1l1-4.5
			L177.7-294z"/>
		<path class="st0" d="M193.9-288.9l-2.3,11c-0.1,0.4-0.1,0.7-0.1,1c0,0.9,0.4,1.4,1.3,1.4c1.3,0,2.1-1.4,2.6-3h1.4
			c-1.8,5.3-4.7,6-6.5,6c-1.8,0-3-1-3.2-3c-1,1.5-2.5,3-4.8,3c-2.2,0-4.3-1.4-4.3-5.2c0-4.4,2.7-11.3,8.3-11.3
			c1.8,0,2.6,0.7,2.6,1.6v0.2l0.4-1.7H193.9z M182.7-278.2c0,2.5,1,2.5,1.6,2.5c0.9,0,2.3-1,2.7-2.8l1.5-7.3c0-0.4-0.3-1.2-1.3-1.2
			C184.5-287.1,182.7-281.3,182.7-278.2z"/>
		<path class="st0" d="M210.2-288.9l-2.3,11c-0.1,0.4-0.1,0.7-0.1,1c0,0.9,0.4,1.2,1.3,1.2c1.3,0,2.1-1.2,2.6-2.8h1.4
			c-1.8,5.3-4.7,6-6.5,6c-1.8,0-3-1.1-3.2-3.1c-1.6,2.6-3.4,3.1-4.8,3.1c-1.9,0-3.5-1.2-3.5-3.9c0-0.6,0.1-1.3,0.3-2.1l2.2-10.4h4.6
			l-2.3,11c-0.1,0.3-0.1,0.6-0.1,0.9c0,0.7,0.3,1.3,1,1.3c1.3,0,2.1-1.2,2.6-2.8l2.2-10.4H210.2z"/>
		<path class="st0" d="M218.5-288.9l-0.4,2c1.1-1,2.4-2,3.9-2c1.5,0,2.2,1.2,2.2,2.4c0,1.1-0.7,2.4-2.3,2.4c-1.8,0-0.9-2.1-1.9-2.1
			s-1.5,0.5-2.4,1.2l-2.6,12.3h-4.6l3.4-16.1H218.5z"/>
		<path class="st0" d="M239.3-288.9l-2.3,11c-0.1,0.4-0.1,0.7-0.1,1c0,0.9,0.4,1.4,1.3,1.4c1.3,0,2.1-1.4,2.6-3h1.4
			c-1.8,5.3-4.7,6-6.5,6c-1.8,0-3-1-3.2-3c-1,1.5-2.5,3-4.8,3c-2.2,0-4.3-1.4-4.3-5.2c0-4.4,2.7-11.3,8.3-11.3
			c1.8,0,2.6,0.7,2.6,1.6v0.2l0.4-1.7H239.3z M228.1-278.2c0,2.5,1,2.5,1.6,2.5c0.9,0,2.3-1,2.7-2.8l1.5-7.3c0-0.4-0.3-1.2-1.3-1.2
			C229.9-287.1,228.1-281.3,228.1-278.2z"/>
		<path class="st0" d="M248.9-286.1c-1.2,0-2,1.4-2.5,3l-2.2,10.4h-4.6l3.4-16.1h4.6l-0.4,1.7c1.4-1.5,2.8-1.8,3.8-1.8
			c2.1,0,3.6,1.1,3.6,3.6c0,2.6-1.5,6.5-1.5,8.3c0,0.8,0.3,1.4,1.3,1.4c1.4,0,2-1.2,2.7-2.8h1.4c-1.8,5.3-4.3,6-6,6
			c-2.8,0-3.8-1.8-3.8-3.6c0-2.2,1.5-6.2,1.5-8.2C250.1-285.5,249.7-286.1,248.9-286.1z"/>
		<path class="st0" d="M265-294l-1.1,5.1h1.9l-0.3,1.3h-1.9l-2.1,9.7c-0.1,0.4-0.1,0.7-0.1,1c0,0.9,0.4,1.2,1.3,1.2
			c1.3,0,2.4-1.2,2.9-2.8h1.4c-1.8,5.3-5,6-6.8,6c-1.9,0-3.5-1.2-3.5-3.9c0-0.6,0.1-1.3,0.3-2.1l1.9-9.1h-1.1l0.3-1.3h1.1l1-4.5
			L265-294z"/>
		<path class="st0" d="M275.1-289.9c0.4,8.4,0.7,9.6,0.7,11.8c0,4.2-3.8,5.6-6.5,5.6c-3.3,0-4.7-2.2-4.7-4.1c0-1.5,0.8-2.6,1.7-3
			c1.8-3.2,3-6.4,4-9.6L275.1-289.9z M267.2-277c-0.3,0-0.7-0.1-0.9-0.4c0,1.5,0.5,2.3,2,2.3s2.8-0.7,2.8-3c0-1.7-0.3-2.7-0.6-7.7
			c-0.6,2.1-1.5,4-2.6,6.1c0.4,0.2,0.7,0.6,0.7,1.1C268.7-277.8,268.1-277,267.2-277z"/>
	</g>
</g>
<g>
	<g>
		<g>
			<path class="st0" d="M16.5,16.2h17v50h-17V16.2z"/>
			<path class="st0" d="M40.6,16.2h13.1l13.8,19.3V16.2h15.7v50H70L56.2,47.1v19.2H40.6V16.2z"/>
			<path class="st0" d="M89.5,35h19.8v12.5H89.5V35z"/>
			<path class="st0" d="M115.3,41.3c0-3.6,0.7-7,2.1-10.2c1.4-3.2,3.2-6,5.6-8.4c2.4-2.4,5.2-4.2,8.4-5.6c3.2-1.4,6.6-2.1,10.2-2.1
				s7,0.7,10.2,2.1c3.2,1.4,6,3.3,8.4,5.6c2.4,2.4,4.2,5.2,5.6,8.4c1.4,3.2,2.1,6.6,2.1,10.2s-0.7,7-2.1,10.2
				c-1.4,3.2-3.3,6-5.6,8.4c-2.4,2.4-5.2,4.3-8.4,5.6c-3.2,1.4-6.6,2.1-10.2,2.1s-7-0.7-10.2-2.1c-3.2-1.4-6-3.2-8.4-5.6
				c-2.4-2.4-4.3-5.2-5.6-8.4C116,48.3,115.3,44.9,115.3,41.3z M131.1,41.3c0,1.5,0.3,2.8,0.8,4.1c0.5,1.3,1.3,2.4,2.2,3.3
				c0.9,1,2.1,1.7,3.3,2.2c1.3,0.6,2.6,0.8,4.1,0.8c1.4,0,2.8-0.3,4.1-0.8c1.3-0.5,2.4-1.3,3.3-2.2c0.9-0.9,1.7-2.1,2.2-3.3
				c0.5-1.3,0.8-2.6,0.8-4.1c0-1.4-0.3-2.8-0.8-4.1c-0.6-1.3-1.3-2.4-2.2-3.3c-1-0.9-2.1-1.7-3.3-2.2c-1.3-0.5-2.6-0.8-4.1-0.8
				c-1.5,0-2.8,0.3-4.1,0.8c-1.3,0.6-2.4,1.3-3.3,2.2c-1,1-1.7,2.1-2.2,3.3C131.4,38.5,131.1,39.8,131.1,41.3z"/>
			<path class="st0" d="M173.8,16.2h17.2c3.2,0,6.2,0.4,8.9,1.3c2.7,0.9,5.1,2.1,7.1,3.8c2,1.6,3.6,3.7,4.7,6.1
				c1.1,2.4,1.7,5.2,1.7,8.4c0,2.5-0.4,4.6-1.1,6.4c-0.7,1.8-1.5,3.2-2.3,4.4c-1,1.3-2.1,2.4-3.4,3.3l9.4,16.5h-18.8l-7.5-12.7v12.7
				h-16V16.2z M189.8,40.8h0.8c1.9,0,3.5-0.4,4.8-1.3c1.3-0.8,2-2.3,2-4.3c0-2-0.7-3.4-2-4.3c-1.3-0.8-2.9-1.3-4.8-1.3h-0.8V40.8z"
				/>
			<path class="st0" d="M218.7,35h19.8v12.5h-19.8V35z"/>
			<path class="st0" d="M244.5,41.3c0-3.6,0.7-7,2.1-10.2c1.4-3.2,3.2-6,5.6-8.4c2.4-2.4,5.2-4.2,8.4-5.6c3.2-1.4,6.6-2.1,10.2-2.1
				s7,0.7,10.2,2.1c3.2,1.4,6,3.3,8.4,5.6c2.4,2.4,4.2,5.2,5.6,8.4c1.4,3.2,2.1,6.6,2.1,10.2s-0.7,7-2.1,10.2
				c-1.4,3.2-3.3,6-5.6,8.4c-2.4,2.4-5.2,4.3-8.4,5.6c-3.2,1.4-6.6,2.1-10.2,2.1s-7-0.7-10.2-2.1c-3.2-1.4-6-3.2-8.4-5.6
				c-2.4-2.4-4.3-5.2-5.6-8.4C245.2,48.3,244.5,44.9,244.5,41.3z M260.2,41.3c0,1.5,0.3,2.8,0.8,4.1c0.5,1.3,1.3,2.4,2.2,3.3
				c0.9,1,2.1,1.7,3.3,2.2c1.3,0.6,2.6,0.8,4.1,0.8c1.4,0,2.8-0.3,4.1-0.8c1.3-0.5,2.4-1.3,3.3-2.2c0.9-0.9,1.7-2.1,2.2-3.3
				c0.5-1.3,0.8-2.6,0.8-4.1c0-1.4-0.3-2.8-0.8-4.1c-0.6-1.3-1.3-2.4-2.2-3.3c-1-0.9-2.1-1.7-3.3-2.2c-1.3-0.5-2.6-0.8-4.1-0.8
				c-1.5,0-2.8,0.3-4.1,0.8c-1.3,0.6-2.4,1.3-3.3,2.2c-1,1-1.7,2.1-2.2,3.3C260.5,38.5,260.2,39.8,260.2,41.3z"/>
			<path class="st0" d="M323.5,67.5c-3.1,0-6-0.4-8.6-1.2c-2.5-0.8-4.7-2-6.5-3.6c-1.8-1.6-3.2-3.6-4.2-6.1c-1-2.4-1.5-5.3-1.5-8.6
				V16.2h16v31.1c0,1.8,0.4,3.1,1.1,4c0.7,0.9,1.9,1.4,3.6,1.4c1.7,0,2.9-0.5,3.6-1.4c0.7-0.9,1.1-2.3,1.1-4V16.2h16V48
				c0,3.3-0.5,6.2-1.5,8.6c-1,2.5-2.4,4.5-4.2,6.1c-1.8,1.6-4,2.8-6.6,3.6C329.5,67.1,326.6,67.5,323.5,67.5z"/>
			<path class="st0" d="M357.7,29.4h-9.2V16.2h35v13.1h-9.2v36.9h-16.5V29.4z"/>
		</g>
	</g>
	<g>
		<path class="st0" d="M32.4,86.7l-2.1,9.9h0.3c3.6,0,6.1-4.2,6.1-7.5c0-2.4-1.4-4.5-4.7-4.5c-6.9,0-11.6,3.9-11.6,10.4
			c0,2.2,0.6,2.5,0.6,2.9c-3,0-4.6-1.1-4.6-4.2c0-5.7,7.9-11.1,15-11.1c6.8,0,9.7,3.3,9.7,6.9c0,2.6-1.7,5.6-4.6,7.3
			c2.3,0.6,3,2.3,3,4.3c0,3.5-2.1,8.1-2.1,10.8c0,1.3,0.6,2.4,1.7,2.8c-1.8,0.5-3.2,0.7-4.2,0.7c-2.8,0-3.3-1.5-3.3-2.9
			c0-2.8,2.3-8,2.3-11.3c0-1.7-0.6-2.9-2.6-2.9c-0.4,0-0.9,0.1-1.4,0.2l-3.4,16.1h-6.2l5.8-27.2L32.4,86.7z"/>
		<path class="st0" d="M50.8,111.5c3.4,0,5.4-1.9,7.6-4.3h1.5c-2.4,3.9-6.1,7.9-11.8,7.9c-4,0-6.7-2-6.7-6.8
			c0-4.9,2.8-15.2,11.6-15.2c3.8,0,4.7,2,4.7,4.1c0,4.9-4.7,8.7-9.9,9c0,0.6-0.1,1.2-0.1,1.7C47.7,110.8,48.8,111.5,50.8,111.5z
			 M53.3,95.3c-2.2,0-4.3,4.6-5.1,8.8c3.3-0.2,6.2-3.5,6.2-7.1C54.4,96,54.1,95.3,53.3,95.3z"/>
		<path class="st0" d="M70.9,97c0-1.1-0.4-1.8-1.2-1.8c-2.7,0-5.5,7.8-5.5,12.6c0,2.9,1,3.6,3.1,3.6c3.4,0,5.4-1.9,7.6-4.3h1.5
			c-2.4,3.9-6.1,7.9-11.8,7.9c-4,0-6.7-2-6.7-6.8c0-5,2.8-15.2,11.5-15.2c3.8,0,4.8,2,4.8,3.9c0,2.1-1,3.1-2.3,3.1
			c-0.5,0-1-0.2-1.5-0.5C70.7,98.6,70.9,97.8,70.9,97z"/>
		<path class="st0" d="M83.9,93.4L80.9,108c-0.1,0.6-0.2,1-0.2,1.4c0,1.2,0.6,1.6,1.8,1.6c1.7,0,3.2-1.6,3.9-3.8h1.8
			c-2.4,7-6.7,7.9-9,7.9c-2.6,0-4.6-1.5-4.6-5.1c0-0.8,0.1-1.8,0.3-2.8l2.9-13.7H83.9z M82,84.3c1.9,0,3.4,1.5,3.4,3.4
			c0,1.9-1.5,3.4-3.4,3.4c-1.9,0-3.4-1.5-3.4-3.4C78.6,85.8,80.1,84.3,82,84.3z"/>
		<path class="st0" d="M95.7,91.8L95,95c1.2-1.1,2.9-1.8,5-1.8c2.9,0,5.2,1.7,5.2,6.8c0,5.8-2.2,15.1-10.5,15.1
			c-2.1,0-3.2-0.7-3.6-1.5L88.9,124l-6.5,1.5l7.2-33.7H95.7z M99.4,99.8c0-3.3-1.4-3.6-2.1-3.6c-0.9,0-2.1,0.7-3,2.1l-2.5,12
			c0.2,0.5,0.6,1,1.6,1C97.9,111.3,99.4,103.8,99.4,99.8z"/>
		<path class="st0" d="M115.2,111.5c3.4,0,5.4-1.9,7.6-4.3h1.5c-2.4,3.9-6.1,7.9-11.8,7.9c-4,0-6.7-2-6.7-6.8
			c0-4.9,2.8-15.2,11.6-15.2c3.8,0,4.7,2,4.7,4.1c0,4.9-4.7,8.7-9.9,9c0,0.6-0.1,1.2-0.1,1.7C112.1,110.8,113.2,111.5,115.2,111.5z
			 M117.7,95.3c-2.2,0-4.3,4.6-5.1,8.8c3.3-0.2,6.2-3.5,6.2-7.1C118.8,96,118.5,95.3,117.7,95.3z"/>
		<path class="st0" d="M135.3,92.1c0.5,11.1,0.9,12.8,0.9,15.6c0,5.6-5.1,7.4-8.6,7.4c-4.4,0-6.3-2.9-6.3-5.5c0-2,1.1-3.4,2.3-4
			c2.4-4.2,3.9-8.5,5.3-12.7L135.3,92.1z M124.9,109.2c-0.4,0-0.9-0.1-1.2-0.6c0,2,0.7,3,2.6,3c1.9,0,3.7-1,3.7-4
			c0-2.2-0.4-3.6-0.8-10.2c-0.9,2.8-2.1,5.4-3.5,8.1c0.6,0.3,1,0.8,1,1.5C126.7,108.2,126,109.2,124.9,109.2z"/>
		<path class="st0" d="M174.8,97.1c0,2.4-3,5.4-6.5,6c-3.3,11.7-9.2,12-13.4,12c-5.9,0-8.9-4.2-8.9-8.7c0-4.1,2.6-8.4,7.8-9.5
			c-2.9-1.6-4.2-4.1-4.2-6.5c0-3.9,3.4-7.8,9.5-7.8c4,0,7.9,1.6,7.9,5.7c0,2.3-0.8,3.9-3,3.9c-0.7,0-1.6-0.2-2.4-1.1
			c1.1-0.3,1.9-2.4,1.9-3.5c0-0.7-0.1-3.2-2.8-3.2c-3.1,0-5.2,2.4-5.2,5.3c0,2.5,1.6,5.3,5.7,7.1c-5.4,2.2-7.5,5.7-7.5,8.6
			c0,3.1,2.3,5.7,5,5.7c3,0,6.4-1.8,7.8-8.1c-1.1-0.1-2.1-0.3-3-0.3c-1.8,0-3.2,0.6-4,1.9l-0.3,0c0.9-3.5,3.9-6,8.3-6
			c1.2,0,2.2,0.2,3.3,0.2c1.6,0,3.3-0.6,4.1-1.8H174.8z"/>
		<path class="st0" d="M200.3,86.7l-2.1,9.9h0.3c3.6,0,6.1-4.2,6.1-7.5c0-2.4-1.4-4.5-4.7-4.5c-6.9,0-11.6,3.9-11.6,10.4
			c0,2.2,0.6,2.5,0.6,2.9c-3,0-4.6-1.1-4.6-4.2c0-5.7,7.9-11.1,15-11.1c6.8,0,9.7,3.3,9.7,6.9c0,2.6-1.7,5.6-4.6,7.3
			c2.3,0.6,3,2.3,3,4.3c0,3.5-2.1,8.1-2.1,10.8c0,1.3,0.6,2.4,1.7,2.8c-1.8,0.5-3.2,0.7-4.2,0.7c-2.8,0-3.3-1.5-3.3-2.9
			c0-2.8,2.3-8,2.3-11.3c0-1.7-0.6-2.9-2.6-2.9c-0.4,0-0.9,0.1-1.4,0.2l-3.4,16.1h-6.2l5.8-27.2L200.3,86.7z"/>
		<path class="st0" d="M218.7,111.5c3.4,0,5.4-1.9,7.6-4.3h1.5c-2.4,3.9-6.1,7.9-11.8,7.9c-4,0-6.7-2-6.7-6.8
			c0-4.9,2.8-15.2,11.6-15.2c3.8,0,4.7,2,4.7,4.1c0,4.9-4.7,8.7-9.9,9c0,0.6-0.1,1.2-0.1,1.7C215.7,110.8,216.7,111.5,218.7,111.5z
			 M221.2,95.3c-2.2,0-4.3,4.6-5.1,8.8c3.3-0.2,6.2-3.5,6.2-7.1C222.3,96,222,95.3,221.2,95.3z"/>
		<path class="st0" d="M244.5,107.1c-2.2,2.6-4.6,4.2-6.6,5.4c-1.8,1.9-4.5,2.6-6.7,2.6c-4.4,0-6.3-2.9-6.3-5.5c0-2,1.1-3.4,2.3-4
			c2.4-4.2,3.9-8.5,5.3-12.7l6.3-0.9c0.5,11.1,0.9,12.8,0.9,15.6c0,0.6,0,1.1-0.2,1.6c1.2-0.7,2.3-1.5,3.1-2.1H244.5z M228.4,109.2
			c-0.4,0-0.9-0.1-1.2-0.6c0,2,0.7,3,2.6,3c1.9,0,3.7-1,3.7-4c0-2.2-0.4-3.6-0.8-10.2c-0.9,2.8-2.1,5.4-3.5,8.1c0.6,0.3,1,0.8,1,1.5
			C230.3,108.2,229.5,109.2,228.4,109.2z"/>
		<path class="st0" d="M253.2,86.6l-1.5,6.8h2.6l-0.3,1.7h-2.6l-2.7,12.8c-0.1,0.6-0.2,1-0.2,1.4c0,1.2,0.6,1.6,1.8,1.6
			c1.7,0,3.2-1.6,3.9-3.8h1.8c-2.4,7-6.7,7.9-9,7.9c-2.6,0-4.6-1.5-4.6-5.1c0-0.8,0.1-1.8,0.3-2.8l2.6-12h-1.4l0.3-1.7h1.4l1.3-5.9
			L253.2,86.6z"/>
		<path class="st0" d="M274.7,93.4l-3.1,14.6c-0.1,0.6-0.2,1-0.2,1.4c0,1.2,0.6,1.8,1.8,1.8c1.7,0,2.8-1.9,3.5-4h1.8
			c-2.4,7-6.3,7.9-8.6,7.9c-2.4,0-3.9-1.4-4.2-3.9c-1.3,2-3.3,3.9-6.4,3.9c-2.9,0-5.7-1.8-5.7-6.9c0-5.8,3.6-15,11-15
			c2.4,0,3.5,0.9,3.5,2.2v0.3l0.5-2.3H274.7z M259.9,107.6c0,3.3,1.4,3.3,2.1,3.3c1.2,0,3-1.3,3.6-3.8l2.1-9.7
			c0-0.5-0.4-1.6-1.8-1.6C262.3,95.8,259.9,103.5,259.9,107.6z"/>
		<path class="st0" d="M296.3,93.4l-3.1,14.6c-0.1,0.6-0.2,1-0.2,1.4c0,1.2,0.6,1.6,1.8,1.6c1.7,0,2.8-1.6,3.5-3.8h1.8
			c-2.4,7-6.3,7.9-8.6,7.9c-2.4,0-4-1.4-4.2-4.1c-2.1,3.5-4.5,4.1-6.3,4.1c-2.6,0-4.6-1.5-4.6-5.1c0-0.8,0.1-1.8,0.3-2.8l2.9-13.7
			h6.2l-3.1,14.6c-0.1,0.4-0.1,0.8-0.1,1.2c0,1,0.3,1.8,1.3,1.8c1.7,0,2.8-1.6,3.4-3.8l2.9-13.7H296.3z"/>
		<path class="st0" d="M307.4,93.4l-0.6,2.7c1.5-1.3,3.1-2.7,5.2-2.7c1.9,0,3,1.6,3,3.2c0,1.5-1,3.1-3.1,3.1c-2.4,0-1.2-2.8-2.5-2.8
			c-1.3,0-2.1,0.6-3.1,1.6l-3.4,16.3h-6.2l4.5-21.4H307.4z"/>
		<path class="st0" d="M335,93.4l-3.1,14.6c-0.1,0.6-0.2,1-0.2,1.4c0,1.2,0.6,1.8,1.8,1.8c1.7,0,2.8-1.9,3.5-4h1.8
			c-2.4,7-6.3,7.9-8.6,7.9c-2.4,0-3.9-1.4-4.2-3.9c-1.3,2-3.3,3.9-6.4,3.9c-2.9,0-5.7-1.8-5.7-6.9c0-5.8,3.6-15,11-15
			c2.4,0,3.5,0.9,3.5,2.2v0.3l0.5-2.3H335z M320.2,107.6c0,3.3,1.4,3.3,2.1,3.3c1.2,0,3-1.3,3.6-3.8l2.1-9.7c0-0.5-0.4-1.6-1.8-1.6
			C322.5,95.8,320.2,103.5,320.2,107.6z"/>
		<path class="st0" d="M347.7,97.1c-1.5,0-2.7,1.8-3.3,3.9l-2.9,13.7h-6.2l4.5-21.4h6.2l-0.5,2.2c1.8-2.1,3.7-2.4,5-2.4
			c2.7,0,4.8,1.4,4.8,4.8c0,3.5-2.1,8.7-2.1,11.1c0,1.1,0.4,1.8,1.7,1.8c1.9,0,2.7-1.5,3.6-3.8h1.8c-2.4,7-5.7,7.9-8,7.9
			c-3.7,0-5.1-2.4-5.1-4.8c0-2.9,1.9-8.2,1.9-10.9C349.3,97.9,348.8,97.1,347.7,97.1z"/>
		<path class="st0" d="M369.1,86.6l-1.5,6.8h2.6l-0.3,1.7h-2.6l-2.7,12.8c-0.1,0.6-0.2,1-0.2,1.4c0,1.2,0.6,1.6,1.8,1.6
			c1.7,0,3.2-1.6,3.9-3.8h1.8c-2.4,7-6.7,7.9-9,7.9c-2.6,0-4.6-1.5-4.6-5.1c0-0.8,0.1-1.8,0.3-2.8l2.6-12h-1.4l0.3-1.7h1.4l1.3-5.9
			L369.1,86.6z"/>
		<path class="st0" d="M382.5,92.1c0.5,11.1,0.9,12.8,0.9,15.6c0,5.6-5.1,7.4-8.6,7.4c-4.4,0-6.3-2.9-6.3-5.5c0-2,1.1-3.4,2.3-4
			c2.4-4.2,3.9-8.5,5.3-12.7L382.5,92.1z M372.1,109.2c-0.4,0-0.9-0.1-1.2-0.6c0,2,0.7,3,2.6,3c1.9,0,3.7-1,3.7-4
			c0-2.2-0.4-3.6-0.8-10.2c-0.9,2.8-2.1,5.4-3.5,8.1c0.6,0.3,1,0.8,1,1.5C373.9,108.2,373.2,109.2,372.1,109.2z"/>
	</g>
</g>
</svg>
