<?xml version="1.0" encoding="utf-8"?>
<!-- Generator: Adobe Illustrator 19.2.1, SVG Export Plug-In . SVG Version: 6.00 Build 0)  -->
<svg version="1.1" id="Layer_1" xmlns="http://www.w3.org/2000/svg" xmlns:xlink="http://www.w3.org/1999/xlink" x="0px" y="0px"
	 viewBox="0 0 399.7 140.5" style="enable-background:new 0 0 399.7 140.5;" xml:space="preserve">
<style type="text/css">
	.st0{fill:#FFFFFF;}
</style>
<g>
	<g>
		<path class="st0" d="M16.5,16.2h17v50h-17V16.2z"/>
		<path class="st0" d="M40.6,16.2h13.1l13.8,19.3V16.2h15.7v50H70L56.2,47.1v19.2H40.6V16.2z"/>
		<path class="st0" d="M89.5,35h19.8v12.5H89.5V35z"/>
		<path class="st0" d="M115.3,41.3c0-3.6,0.7-7,2.1-10.2c1.4-3.2,3.2-6,5.6-8.4c2.4-2.4,5.2-4.2,8.4-5.6c3.2-1.4,6.6-2.1,10.2-2.1
			s7,0.7,10.2,2.1c3.2,1.4,6,3.3,8.4,5.6c2.4,2.4,4.2,5.2,5.6,8.4c1.4,3.2,2.1,6.6,2.1,10.2s-0.7,7-2.1,10.2c-1.4,3.2-3.3,6-5.6,8.4
			c-2.4,2.4-5.2,4.3-8.4,5.6c-3.2,1.4-6.6,2.1-10.2,2.1s-7-0.7-10.2-2.1c-3.2-1.4-6-3.2-8.4-5.6c-2.4-2.4-4.3-5.2-5.6-8.4
			C116,48.3,115.3,44.9,115.3,41.3z M131.1,41.3c0,1.5,0.3,2.8,0.8,4.1c0.5,1.3,1.3,2.4,2.2,3.3c0.9,1,2.1,1.7,3.3,2.2
			c1.3,0.6,2.6,0.8,4.1,0.8c1.4,0,2.8-0.3,4.1-0.8c1.3-0.5,2.4-1.3,3.3-2.2c0.9-0.9,1.7-2.1,2.2-3.3c0.5-1.3,0.8-2.6,0.8-4.1
			c0-1.4-0.3-2.8-0.8-4.1c-0.6-1.3-1.3-2.4-2.2-3.3c-1-0.9-2.1-1.7-3.3-2.2c-1.3-0.5-2.6-0.8-4.1-0.8c-1.5,0-2.8,0.3-4.1,0.8
			c-1.3,0.6-2.4,1.3-3.3,2.2c-1,1-1.7,2.1-2.2,3.3C131.4,38.5,131.1,39.8,131.1,41.3z"/>
		<path class="st0" d="M173.8,16.2h17.2c3.2,0,6.2,0.4,8.9,1.3c2.7,0.9,5.1,2.1,7.1,3.8c2,1.6,3.6,3.7,4.7,6.1
			c1.1,2.4,1.7,5.2,1.7,8.4c0,2.5-0.4,4.6-1.1,6.4c-0.7,1.8-1.5,3.2-2.3,4.4c-1,1.3-2.1,2.4-3.4,3.3l9.4,16.5h-18.8l-7.5-12.7v12.7
			h-16V16.2z M189.8,40.8h0.8c1.9,0,3.5-0.4,4.8-1.3c1.3-0.8,2-2.3,2-4.3c0-2-0.7-3.4-2-4.3c-1.3-0.8-2.9-1.3-4.8-1.3h-0.8V40.8z"/>
		<path class="st0" d="M218.7,35h19.8v12.5h-19.8V35z"/>
		<path class="st0" d="M244.5,41.3c0-3.6,0.7-7,2.1-10.2c1.4-3.2,3.2-6,5.6-8.4c2.4-2.4,5.2-4.2,8.4-5.6c3.2-1.4,6.6-2.1,10.2-2.1
			s7,0.7,10.2,2.1c3.2,1.4,6,3.3,8.4,5.6c2.4,2.4,4.2,5.2,5.6,8.4c1.4,3.2,2.1,6.6,2.1,10.2s-0.7,7-2.1,10.2c-1.4,3.2-3.3,6-5.6,8.4
			c-2.4,2.4-5.2,4.3-8.4,5.6c-3.2,1.4-6.6,2.1-10.2,2.1s-7-0.7-10.2-2.1c-3.2-1.4-6-3.2-8.4-5.6c-2.4-2.4-4.3-5.2-5.6-8.4
			C245.2,48.3,244.5,44.9,244.5,41.3z M260.2,41.3c0,1.5,0.3,2.8,0.8,4.1c0.5,1.3,1.3,2.4,2.2,3.3c0.9,1,2.1,1.7,3.3,2.2
			c1.3,0.6,2.6,0.8,4.1,0.8c1.4,0,2.8-0.3,4.1-0.8c1.3-0.5,2.4-1.3,3.3-2.2c0.9-0.9,1.7-2.1,2.2-3.3c0.5-1.3,0.8-2.6,0.8-4.1
			c0-1.4-0.3-2.8-0.8-4.1c-0.6-1.3-1.3-2.4-2.2-3.3c-1-0.9-2.1-1.7-3.3-2.2c-1.3-0.5-2.6-0.8-4.1-0.8c-1.5,0-2.8,0.3-4.1,0.8
			c-1.3,0.6-2.4,1.3-3.3,2.2c-1,1-1.7,2.1-2.2,3.3C260.5,38.5,260.2,39.8,260.2,41.3z"/>
		<path class="st0" d="M323.5,67.5c-3.1,0-6-0.4-8.6-1.2c-2.5-0.8-4.7-2-6.5-3.6c-1.8-1.6-3.2-3.6-4.2-6.1c-1-2.4-1.5-5.3-1.5-8.6
			V16.2h16v31.1c0,1.8,0.4,3.1,1.1,4c0.7,0.9,1.9,1.4,3.6,1.4c1.7,0,2.9-0.5,3.6-1.4c0.7-0.9,1.1-2.3,1.1-4V16.2h16V48
			c0,3.3-0.5,6.2-1.5,8.6c-1,2.5-2.4,4.5-4.2,6.1c-1.8,1.6-4,2.8-6.6,3.6C329.5,67.1,326.6,67.5,323.5,67.5z"/>
		<path class="st0" d="M357.7,29.4h-9.2V16.2h35v13.1h-9.2v36.9h-16.5V29.4z"/>
	</g>
	<g>
		<path class="st0" d="M31.7,86.4l-2,9.5H30c3.4,0,5.8-4,5.8-7.1c0-2.3-1.3-4.3-4.5-4.3c-6.6,0-11.1,3.7-11.1,10
			c0,2.1,0.5,2.4,0.6,2.8c-2.8,0-4.4-1-4.4-4c0-5.5,7.5-10.7,14.4-10.7c6.5,0,9.3,3.2,9.3,6.6c0,2.5-1.6,5.3-4.4,7
			c2.2,0.6,2.8,2.2,2.8,4.1c0,3.4-2,7.8-2,10.4c0,1.2,0.6,2.3,1.6,2.7c-1.7,0.5-3.1,0.7-4.1,0.7c-2.7,0-3.2-1.4-3.2-2.7
			c0-2.7,2.2-7.7,2.2-10.8c0-1.6-0.6-2.8-2.5-2.8c-0.4,0-0.8,0.1-1.4,0.2L26,113.2h-5.9l5.6-26.1L31.7,86.4z"/>
		<path class="st0" d="M49.4,110.1c3.2,0,5.2-1.8,7.3-4.1H58c-2.3,3.8-5.8,7.6-11.3,7.6c-3.9,0-6.4-1.9-6.4-6.5
			c0-4.7,2.7-14.6,11.1-14.6c3.6,0,4.5,1.9,4.5,3.9c0,4.7-4.5,8.4-9.4,8.7c0,0.6-0.1,1.1-0.1,1.6C46.4,109.4,47.4,110.1,49.4,110.1z
			 M51.7,94.6c-2.1,0-4.1,4.4-4.9,8.4c3.2-0.2,5.9-3.4,5.9-6.8C52.8,95.2,52.5,94.6,51.7,94.6z"/>
		<path class="st0" d="M68.5,96.2c0-1-0.4-1.7-1.1-1.7c-2.6,0-5.2,7.5-5.2,12.1c0,2.8,1,3.4,3,3.4c3.2,0,5.2-1.8,7.3-4.1h1.4
			c-2.3,3.8-5.8,7.6-11.3,7.6c-3.9,0-6.4-1.9-6.4-6.5c0-4.8,2.7-14.6,11-14.6c3.6,0,4.6,1.9,4.6,3.8c0,2-1,3-2.2,3
			c-0.5,0-0.9-0.2-1.4-0.5C68.4,97.8,68.5,96.9,68.5,96.2z"/>
		<path class="st0" d="M80.8,110.1c3.2,0,5.2-1.8,7.3-4.1h1.4c-2.3,3.8-5.8,7.6-11.3,7.6c-3.9,0-6.4-1.9-6.4-6.5
			c0-4.7,2.7-14.6,11.1-14.6c3.6,0,4.5,1.9,4.5,3.9c0,4.7-4.5,8.4-9.4,8.7c0,0.6-0.1,1.1-0.1,1.6C77.9,109.4,78.9,110.1,80.8,110.1z
			 M83.2,94.6c-2.1,0-4.1,4.4-4.9,8.4c3.2-0.2,5.9-3.4,5.9-6.8C84.2,95.2,84,94.6,83.2,94.6z"/>
		<path class="st0" d="M96.8,92.8l-3,13.9c-0.1,0.5-0.2,0.9-0.2,1.3c0,1.1,0.5,1.5,1.7,1.5c1.6,0,3.1-1.6,3.7-3.6h1.7
			c-2.3,6.7-6.4,7.6-8.6,7.6c-2.5,0-4.4-1.5-4.4-4.9c0-0.8,0.1-1.7,0.3-2.7l2.8-13.2H96.8z M94.9,84c1.8,0,3.3,1.5,3.3,3.3
			c0,1.8-1.5,3.2-3.3,3.2c-1.8,0-3.2-1.4-3.2-3.2C91.7,85.5,93.1,84,94.9,84z"/>
		<path class="st0" d="M108.1,91.2l-0.7,3.1c1.2-1,2.7-1.8,4.8-1.8c2.8,0,5,1.6,5,6.5c0,5.5-2.1,14.5-10.1,14.5c-2,0-3-0.7-3.5-1.5
			l-2.1,10l-6.2,1.5l6.8-32.3H108.1z M111.6,98.9c0-3.2-1.3-3.4-2-3.4c-0.9,0-2,0.7-2.8,2l-2.4,11.5c0.2,0.5,0.6,0.9,1.6,0.9
			C110.2,109.9,111.6,102.8,111.6,98.9z"/>
		<path class="st0" d="M126.7,110.1c3.2,0,5.2-1.8,7.3-4.1h1.4c-2.3,3.8-5.8,7.6-11.3,7.6c-3.9,0-6.4-1.9-6.4-6.5
			c0-4.7,2.7-14.6,11.1-14.6c3.6,0,4.5,1.9,4.5,3.9c0,4.7-4.5,8.4-9.4,8.7c0,0.6-0.1,1.1-0.1,1.6
			C123.8,109.4,124.8,110.1,126.7,110.1z M129.1,94.6c-2.1,0-4.1,4.4-4.9,8.4c3.2-0.2,5.9-3.4,5.9-6.8
			C130.1,95.2,129.9,94.6,129.1,94.6z"/>
		<path class="st0" d="M145.9,91.5c0.5,10.6,0.9,12.2,0.9,14.9c0,5.3-4.8,7.1-8.2,7.1c-4.2,0-6-2.7-6-5.2c0-1.9,1.1-3.3,2.2-3.8
			c2.3-4.1,3.8-8.1,5-12.1L145.9,91.5z M135.9,107.9c-0.4,0-0.9-0.1-1.1-0.5c0,1.9,0.7,2.9,2.5,2.9s3.6-0.9,3.6-3.8
			c0-2.1-0.4-3.4-0.8-9.7c-0.8,2.7-2,5.1-3.3,7.7c0.5,0.2,0.9,0.7,0.9,1.4C137.7,106.9,137,107.9,135.9,107.9z"/>
		<path class="st0" d="M183.8,96.3c0,2.3-2.8,5.1-6.2,5.7c-3.1,11.2-8.8,11.5-12.8,11.5c-5.7,0-8.5-4.1-8.5-8.3c0-3.9,2.5-8,7.4-9.1
			c-2.8-1.5-4.1-3.9-4.1-6.2c0-3.7,3.3-7.4,9.1-7.4c3.8,0,7.5,1.5,7.5,5.5c0,2.2-0.8,3.8-2.9,3.8c-0.7,0-1.6-0.2-2.3-1.1
			c1-0.3,1.8-2.3,1.8-3.4c0-0.7-0.1-3-2.7-3c-3,0-5,2.3-5,5c0,2.4,1.6,5,5.4,6.8c-5.2,2.1-7.1,5.4-7.1,8.2c0,3,2.2,5.5,4.8,5.5
			c2.8,0,6.1-1.7,7.4-7.7c-1-0.1-2-0.2-2.9-0.2c-1.8,0-3.1,0.6-3.9,1.8l-0.3,0c0.8-3.4,3.7-5.8,7.9-5.8c1.1,0,2.1,0.2,3.1,0.2
			c1.5,0,3.2-0.5,3.9-1.8H183.8z"/>
		<path class="st0" d="M208.2,86.4l-2,9.5h0.3c3.4,0,5.8-4,5.8-7.1c0-2.3-1.3-4.3-4.5-4.3c-6.6,0-11.1,3.7-11.1,10
			c0,2.1,0.5,2.4,0.6,2.8c-2.8,0-4.4-1-4.4-4c0-5.5,7.5-10.7,14.4-10.7c6.5,0,9.3,3.2,9.3,6.6c0,2.5-1.6,5.3-4.4,7
			c2.2,0.6,2.8,2.2,2.8,4.1c0,3.4-2,7.8-2,10.4c0,1.2,0.6,2.3,1.6,2.7c-1.7,0.5-3.1,0.7-4.1,0.7c-2.7,0-3.2-1.4-3.2-2.7
			c0-2.7,2.2-7.7,2.2-10.8c0-1.6-0.6-2.8-2.5-2.8c-0.4,0-0.8,0.1-1.4,0.2l-3.3,15.5h-5.9l5.6-26.1L208.2,86.4z"/>
		<path class="st0" d="M225.8,110.1c3.2,0,5.2-1.8,7.3-4.1h1.4c-2.3,3.8-5.8,7.6-11.3,7.6c-3.9,0-6.4-1.9-6.4-6.5
			c0-4.7,2.7-14.6,11.1-14.6c3.6,0,4.5,1.9,4.5,3.9c0,4.7-4.5,8.4-9.4,8.7c0,0.6-0.1,1.1-0.1,1.6
			C222.9,109.4,223.8,110.1,225.8,110.1z M228.2,94.6c-2.1,0-4.1,4.4-4.9,8.4c3.2-0.2,5.9-3.4,5.9-6.8
			C229.2,95.2,229,94.6,228.2,94.6z"/>
		<path class="st0" d="M250.5,105.9c-2.1,2.5-4.4,4-6.3,5.1c-1.7,1.8-4.3,2.5-6.4,2.5c-4.2,0-6-2.7-6-5.2c0-1.9,1.1-3.3,2.2-3.8
			c2.3-4.1,3.8-8.1,5-12.1l6.1-0.8c0.5,10.6,0.9,12.2,0.9,14.9c0,0.6,0,1.1-0.2,1.6c1.1-0.7,2.2-1.4,3-2H250.5z M235,107.9
			c-0.4,0-0.9-0.1-1.1-0.5c0,1.9,0.7,2.9,2.5,2.9s3.6-0.9,3.6-3.8c0-2.1-0.4-3.4-0.8-9.7c-0.8,2.7-2,5.1-3.3,7.7
			c0.5,0.2,0.9,0.7,0.9,1.4C236.8,106.9,236.1,107.9,235,107.9z"/>
		<path class="st0" d="M258.8,86.3l-1.4,6.5h2.5l-0.3,1.6h-2.5l-2.6,12.3c-0.1,0.5-0.2,0.9-0.2,1.3c0,1.1,0.5,1.5,1.7,1.5
			c1.6,0,3.1-1.6,3.7-3.6h1.7c-2.3,6.7-6.4,7.6-8.6,7.6c-2.5,0-4.4-1.5-4.4-4.9c0-0.8,0.1-1.7,0.3-2.7l2.5-11.5h-1.4l0.3-1.6h1.4
			l1.2-5.7L258.8,86.3z"/>
		<path class="st0" d="M279.4,92.8l-3,13.9c-0.1,0.5-0.2,0.9-0.2,1.3c0,1.1,0.5,1.8,1.7,1.8c1.6,0,2.7-1.8,3.3-3.9h1.7
			c-2.3,6.7-6,7.6-8.2,7.6c-2.3,0-3.8-1.3-4-3.8c-1.3,1.9-3.2,3.8-6.1,3.8c-2.8,0-5.5-1.7-5.5-6.6c0-5.5,3.4-14.3,10.5-14.3
			c2.3,0,3.3,0.9,3.3,2.1v0.3l0.5-2.2H279.4z M265.2,106.3c0,3.2,1.3,3.2,2,3.2c1.2,0,2.9-1.2,3.4-3.6l2-9.3c0-0.5-0.4-1.6-1.7-1.6
			C267.5,95.1,265.2,102.5,265.2,106.3z"/>
		<path class="st0" d="M300.1,92.8l-3,13.9c-0.1,0.5-0.2,0.9-0.2,1.3c0,1.1,0.5,1.5,1.7,1.5c1.6,0,2.7-1.6,3.3-3.6h1.7
			c-2.3,6.7-6,7.6-8.2,7.6c-2.3,0-3.8-1.4-4.1-3.9c-2,3.4-4.3,3.9-6.1,3.9c-2.5,0-4.4-1.5-4.4-4.9c0-0.8,0.1-1.7,0.3-2.7l2.8-13.2
			h5.9l-3,13.9c-0.1,0.4-0.1,0.8-0.1,1.1c0,0.9,0.3,1.7,1.2,1.7c1.6,0,2.7-1.6,3.3-3.6l2.8-13.2H300.1z"/>
		<path class="st0" d="M310.6,92.8l-0.5,2.5c1.4-1.2,3-2.5,5-2.5c1.8,0,2.8,1.5,2.8,3.1c0,1.4-0.9,3-3,3c-2.3,0-1.1-2.7-2.4-2.7
			s-2,0.6-3,1.6l-3.3,15.6h-5.9l4.3-20.5H310.6z"/>
		<path class="st0" d="M337,92.8l-3,13.9c-0.1,0.5-0.2,0.9-0.2,1.3c0,1.1,0.5,1.8,1.7,1.8c1.6,0,2.7-1.8,3.3-3.9h1.7
			c-2.3,6.7-6,7.6-8.2,7.6c-2.3,0-3.8-1.3-4-3.8c-1.3,1.9-3.2,3.8-6.1,3.8c-2.8,0-5.5-1.7-5.5-6.6c0-5.5,3.4-14.3,10.5-14.3
			c2.3,0,3.3,0.9,3.3,2.1v0.3l0.5-2.2H337z M322.9,106.3c0,3.2,1.3,3.2,2,3.2c1.2,0,2.9-1.2,3.4-3.6l2-9.3c0-0.5-0.4-1.6-1.7-1.6
			C325.2,95.1,322.9,102.5,322.9,106.3z"/>
		<path class="st0" d="M349.3,96.3c-1.5,0-2.6,1.7-3.2,3.8l-2.8,13.2h-5.9l4.3-20.5h5.9l-0.5,2.1c1.7-2,3.5-2.3,4.8-2.3
			c2.6,0,4.6,1.4,4.6,4.6c0,3.3-2,8.3-2,10.6c0,1,0.4,1.7,1.6,1.7c1.8,0,2.5-1.5,3.4-3.6h1.7c-2.3,6.7-5.5,7.6-7.6,7.6
			c-3.6,0-4.8-2.3-4.8-4.6c0-2.8,1.8-7.8,1.8-10.5C350.7,97.1,350.2,96.3,349.3,96.3z"/>
		<path class="st0" d="M369.7,86.3l-1.4,6.5h2.5l-0.3,1.6H368l-2.6,12.3c-0.1,0.5-0.2,0.9-0.2,1.3c0,1.1,0.5,1.5,1.7,1.5
			c1.6,0,3.1-1.6,3.7-3.6h1.7c-2.3,6.7-6.4,7.6-8.6,7.6c-2.5,0-4.4-1.5-4.4-4.9c0-0.8,0.1-1.7,0.3-2.7l2.5-11.5h-1.4l0.3-1.6h1.4
			l1.2-5.7L369.7,86.3z"/>
		<path class="st0" d="M382.5,91.5c0.5,10.6,0.9,12.2,0.9,14.9c0,5.3-4.8,7.1-8.2,7.1c-4.2,0-6-2.7-6-5.2c0-1.9,1.1-3.3,2.2-3.8
			c2.3-4.1,3.8-8.1,5-12.1L382.5,91.5z M372.5,107.9c-0.4,0-0.9-0.1-1.1-0.5c0,1.9,0.7,2.9,2.5,2.9c1.8,0,3.6-0.9,3.6-3.8
			c0-2.1-0.4-3.4-0.8-9.7c-0.8,2.7-2,5.1-3.3,7.7c0.5,0.2,0.9,0.7,0.9,1.4C374.3,106.9,373.6,107.9,372.5,107.9z"/>
	</g>
</g>
<g>
	<g>
		<path class="st0" d="M-52.1-366.7h17v50h-17V-366.7z"/>
		<path class="st0" d="M-28.1-366.7h13.1l13.8,19.3v-19.3h15.7v50H1.3l-13.7-19.2v19.2h-15.7V-366.7z"/>
		<path class="st0" d="M20.9-348h19.8v12.5H20.9V-348z"/>
		<path class="st0" d="M46.7-341.7c0-3.6,0.7-7,2.1-10.2c1.4-3.2,3.2-6,5.6-8.4c2.4-2.4,5.2-4.2,8.4-5.6c3.2-1.4,6.6-2.1,10.2-2.1
			s7,0.7,10.2,2.1c3.2,1.4,6,3.3,8.4,5.6c2.4,2.4,4.2,5.2,5.6,8.4c1.4,3.2,2.1,6.6,2.1,10.2s-0.7,7-2.1,10.2c-1.4,3.2-3.3,6-5.6,8.4
			c-2.4,2.4-5.2,4.3-8.4,5.6c-3.2,1.4-6.6,2.1-10.2,2.1s-7-0.7-10.2-2.1c-3.2-1.4-6-3.2-8.4-5.6c-2.4-2.4-4.3-5.2-5.6-8.4
			C47.4-334.7,46.7-338.1,46.7-341.7z M62.5-341.7c0,1.5,0.3,2.8,0.8,4.1c0.5,1.3,1.3,2.4,2.2,3.3c0.9,1,2.1,1.7,3.3,2.2
			c1.3,0.6,2.6,0.8,4.1,0.8c1.4,0,2.8-0.3,4.1-0.8c1.3-0.5,2.4-1.3,3.3-2.2c0.9-0.9,1.7-2.1,2.2-3.3c0.5-1.3,0.8-2.6,0.8-4.1
			c0-1.4-0.3-2.8-0.8-4.1c-0.6-1.3-1.3-2.4-2.2-3.3c-1-0.9-2.1-1.7-3.3-2.2c-1.3-0.5-2.6-0.8-4.1-0.8c-1.5,0-2.8,0.3-4.1,0.8
			c-1.3,0.6-2.4,1.3-3.3,2.2c-1,1-1.7,2.1-2.2,3.3C62.7-344.5,62.5-343.1,62.5-341.7z"/>
		<path class="st0" d="M105.2-366.7h17.2c3.2,0,6.2,0.4,8.9,1.3c2.7,0.9,5.1,2.1,7.1,3.8c2,1.6,3.6,3.7,4.7,6.1
			c1.1,2.4,1.7,5.2,1.7,8.4c0,2.5-0.4,4.6-1.1,6.4c-0.7,1.8-1.5,3.2-2.3,4.4c-1,1.3-2.1,2.4-3.4,3.3l9.4,16.5h-18.8l-7.5-12.7v12.7
			h-16V-366.7z M121.2-342.1h0.8c1.9,0,3.5-0.4,4.8-1.3c1.3-0.8,2-2.3,2-4.3c0-2-0.7-3.4-2-4.3c-1.3-0.8-2.9-1.3-4.8-1.3h-0.8
			V-342.1z"/>
		<path class="st0" d="M150.1-348h19.8v12.5h-19.8V-348z"/>
		<path class="st0" d="M175.9-341.7c0-3.6,0.7-7,2.1-10.2c1.4-3.2,3.2-6,5.6-8.4c2.4-2.4,5.2-4.2,8.4-5.6c3.2-1.4,6.6-2.1,10.2-2.1
			s7,0.7,10.2,2.1c3.2,1.4,6,3.3,8.4,5.6c2.4,2.4,4.2,5.2,5.6,8.4c1.4,3.2,2.1,6.6,2.1,10.2s-0.7,7-2.1,10.2c-1.4,3.2-3.3,6-5.6,8.4
			c-2.4,2.4-5.2,4.3-8.4,5.6c-3.2,1.4-6.6,2.1-10.2,2.1s-7-0.7-10.2-2.1c-3.2-1.4-6-3.2-8.4-5.6c-2.4-2.4-4.3-5.2-5.6-8.4
			C176.5-334.7,175.9-338.1,175.9-341.7z M191.6-341.7c0,1.5,0.3,2.8,0.8,4.1c0.5,1.3,1.3,2.4,2.2,3.3c0.9,1,2.1,1.7,3.3,2.2
			c1.3,0.6,2.6,0.8,4.1,0.8c1.4,0,2.8-0.3,4.1-0.8c1.3-0.5,2.4-1.3,3.3-2.2c0.9-0.9,1.7-2.1,2.2-3.3c0.5-1.3,0.8-2.6,0.8-4.1
			c0-1.4-0.3-2.8-0.8-4.1c-0.6-1.3-1.3-2.4-2.2-3.3c-1-0.9-2.1-1.7-3.3-2.2c-1.3-0.5-2.6-0.8-4.1-0.8c-1.5,0-2.8,0.3-4.1,0.8
			c-1.3,0.6-2.4,1.3-3.3,2.2c-1,1-1.7,2.1-2.2,3.3C191.9-344.5,191.6-343.1,191.6-341.7z"/>
		<path class="st0" d="M254.8-315.4c-3.1,0-6-0.4-8.6-1.2c-2.5-0.8-4.7-2-6.5-3.6c-1.8-1.6-3.2-3.6-4.2-6.1c-1-2.4-1.5-5.3-1.5-8.6
			v-31.8h16v31.1c0,1.8,0.4,3.1,1.1,4c0.7,0.9,1.9,1.4,3.6,1.4c1.7,0,2.9-0.5,3.6-1.4c0.7-0.9,1.1-2.3,1.1-4v-31.1h16v31.8
			c0,3.3-0.5,6.2-1.5,8.6c-1,2.5-2.4,4.5-4.2,6.1c-1.8,1.6-4,2.8-6.6,3.6C260.8-315.8,258-315.4,254.8-315.4z"/>
		<path class="st0" d="M289.1-353.6h-9.2v-13.1h35v13.1h-9.2v36.9h-16.5V-353.6z"/>
	</g>
	<g>
		<path class="st0" d="M-1.1-293.9l-1.6,7.5h0.3c2.7,0,4.6-3.2,4.6-5.6c0-1.8-1-3.4-3.6-3.4c-5.2,0-8.7,2.9-8.7,7.8
			c0,1.6,0.4,1.9,0.5,2.2c-2.2,0-3.5-0.8-3.5-3.1c0-4.3,5.9-8.4,11.3-8.4c5.1,0,7.3,2.5,7.3,5.2c0,2-1.3,4.2-3.5,5.5
			c1.7,0.5,2.2,1.7,2.2,3.2c0,2.6-1.6,6.1-1.6,8.2c0,1,0.5,1.8,1.3,2.1c-1.4,0.4-2.4,0.5-3.2,0.5c-2.1,0-2.5-1.1-2.5-2.2
			c0-2.1,1.7-6,1.7-8.5c0-1.3-0.5-2.2-1.9-2.2c-0.3,0-0.6,0.1-1.1,0.1l-2.6,12.2h-4.6l4.4-20.5L-1.1-293.9z"/>
		<path class="st0" d="M12.8-275.3c2.5,0,4.1-1.4,5.7-3.3h1.1c-1.8,3-4.6,6-8.9,6c-3,0-5-1.5-5-5.1c0-3.7,2.1-11.5,8.7-11.5
			c2.9,0,3.6,1.5,3.6,3.1c0,3.7-3.6,6.6-7.4,6.8c0,0.5-0.1,0.9-0.1,1.3C10.4-275.8,11.2-275.3,12.8-275.3z M14.6-287.5
			c-1.6,0-3.2,3.5-3.9,6.7c2.5-0.2,4.7-2.6,4.7-5.3C15.4-287,15.2-287.5,14.6-287.5z"/>
		<path class="st0" d="M27.9-286.2c0-0.8-0.3-1.3-0.9-1.3c-2,0-4.1,5.9-4.1,9.5c0,2.2,0.8,2.7,2.3,2.7c2.5,0,4.1-1.4,5.7-3.3H32
			c-1.8,3-4.6,6-8.9,6c-3,0-5-1.5-5-5.1c0-3.7,2.1-11.5,8.7-11.5c2.9,0,3.6,1.5,3.6,3c0,1.6-0.8,2.4-1.7,2.4c-0.4,0-0.7-0.1-1.1-0.4
			C27.7-285,27.9-285.6,27.9-286.2z"/>
		<path class="st0" d="M37.5-275.3c2.5,0,4.1-1.4,5.7-3.3h1.1c-1.8,3-4.6,6-8.9,6c-3,0-5-1.5-5-5.1c0-3.7,2.1-11.5,8.7-11.5
			c2.9,0,3.6,1.5,3.6,3.1c0,3.7-3.6,6.6-7.4,6.8c0,0.5-0.1,0.9-0.1,1.3C35.2-275.8,36-275.3,37.5-275.3z M39.4-287.5
			c-1.6,0-3.2,3.5-3.9,6.7c2.5-0.2,4.7-2.6,4.7-5.3C40.2-287,40-287.5,39.4-287.5z"/>
		<path class="st0" d="M50.1-288.9l-2.3,11c-0.1,0.4-0.1,0.7-0.1,1c0,0.9,0.4,1.2,1.3,1.2c1.3,0,2.4-1.2,2.9-2.8h1.4
			c-1.8,5.3-5,6-6.8,6c-1.9,0-3.5-1.2-3.5-3.9c0-0.6,0.1-1.3,0.3-2.1l2.2-10.4H50.1z M48.6-295.8c1.4,0,2.6,1.2,2.6,2.6
			c0,1.4-1.2,2.6-2.6,2.6s-2.6-1.1-2.6-2.6C46.1-294.6,47.2-295.8,48.6-295.8z"/>
		<path class="st0" d="M59-290.1l-0.5,2.4c0.9-0.8,2.2-1.4,3.8-1.4c2.2,0,3.9,1.3,3.9,5.1c0,4.4-1.7,11.4-7.9,11.4
			c-1.6,0-2.4-0.5-2.7-1.2l-1.7,7.9l-4.9,1.2l5.4-25.4H59z M61.8-284.1c0-2.5-1-2.7-1.6-2.7c-0.7,0-1.6,0.5-2.2,1.6l-1.9,9
			c0.1,0.4,0.5,0.7,1.2,0.7C60.6-275.4,61.8-281,61.8-284.1z"/>
		<path class="st0" d="M73.7-275.3c2.5,0,4.1-1.4,5.7-3.3h1.1c-1.8,3-4.6,6-8.9,6c-3,0-5-1.5-5-5.1c0-3.7,2.1-11.5,8.7-11.5
			c2.9,0,3.6,1.5,3.6,3.1c0,3.7-3.6,6.6-7.4,6.8c0,0.5-0.1,0.9-0.1,1.3C71.3-275.8,72.1-275.3,73.7-275.3z M75.5-287.5
			c-1.6,0-3.2,3.5-3.9,6.7c2.5-0.2,4.7-2.6,4.7-5.3C76.3-287,76.2-287.5,75.5-287.5z"/>
		<path class="st0" d="M88.8-289.9c0.4,8.4,0.7,9.6,0.7,11.8c0,4.2-3.8,5.6-6.5,5.6c-3.3,0-4.7-2.2-4.7-4.1c0-1.5,0.8-2.6,1.7-3
			c1.8-3.2,3-6.4,4-9.6L88.8-289.9z M80.9-277c-0.3,0-0.7-0.1-0.9-0.4c0,1.5,0.5,2.3,2,2.3c1.4,0,2.8-0.7,2.8-3
			c0-1.7-0.3-2.7-0.6-7.7c-0.6,2.1-1.5,4-2.6,6.1c0.4,0.2,0.7,0.6,0.7,1.1C82.4-277.8,81.8-277,80.9-277z"/>
		<path class="st0" d="M118.6-286.1c0,1.8-2.2,4-4.9,4.5c-2.5,8.8-6.9,9-10.1,9c-4.5,0-6.7-3.2-6.7-6.5c0-3.1,1.9-6.3,5.8-7.1
			c-2.2-1.2-3.2-3.1-3.2-4.9c0-2.9,2.6-5.8,7.2-5.8c3,0,5.9,1.2,5.9,4.3c0,1.7-0.6,3-2.3,3c-0.5,0-1.2-0.1-1.8-0.8
			c0.8-0.2,1.4-1.8,1.4-2.6c0-0.5-0.1-2.4-2.1-2.4c-2.4,0-3.9,1.8-3.9,4c0,1.9,1.2,4,4.3,5.3c-4.1,1.7-5.6,4.3-5.6,6.5
			c0,2.4,1.7,4.3,3.8,4.3c2.2,0,4.8-1.4,5.8-6.1c-0.8-0.1-1.5-0.2-2.3-0.2c-1.4,0-2.4,0.5-3,1.5l-0.2,0c0.6-2.6,2.9-4.6,6.2-4.6
			c0.9,0,1.6,0.2,2.5,0.2c1.2,0,2.5-0.4,3.1-1.4H118.6z"/>
		<path class="st0" d="M137.8-293.9l-1.6,7.5h0.3c2.7,0,4.6-3.2,4.6-5.6c0-1.8-1-3.4-3.6-3.4c-5.2,0-8.7,2.9-8.7,7.8
			c0,1.6,0.4,1.9,0.5,2.2c-2.2,0-3.5-0.8-3.5-3.1c0-4.3,5.9-8.4,11.3-8.4c5.1,0,7.3,2.5,7.3,5.2c0,2-1.3,4.2-3.5,5.5
			c1.7,0.5,2.2,1.7,2.2,3.2c0,2.6-1.6,6.1-1.6,8.2c0,1,0.5,1.8,1.3,2.1c-1.4,0.4-2.4,0.5-3.2,0.5c-2.1,0-2.5-1.1-2.5-2.2
			c0-2.1,1.7-6,1.7-8.5c0-1.3-0.5-2.2-1.9-2.2c-0.3,0-0.6,0.1-1.1,0.1l-2.6,12.2h-4.6l4.4-20.5L137.8-293.9z"/>
		<path class="st0" d="M151.7-275.3c2.6,0,4.1-1.4,5.7-3.3h1.1c-1.8,3-4.6,6-8.9,6c-3,0-5-1.5-5-5.1c0-3.7,2.1-11.5,8.7-11.5
			c2.9,0,3.6,1.5,3.6,3.1c0,3.7-3.6,6.6-7.4,6.8c0,0.5-0.1,0.9-0.1,1.3C149.4-275.8,150.1-275.3,151.7-275.3z M153.6-287.5
			c-1.6,0-3.2,3.5-3.9,6.7c2.5-0.2,4.7-2.6,4.7-5.3C154.4-287,154.2-287.5,153.6-287.5z"/>
		<path class="st0" d="M171.1-278.5c-1.7,1.9-3.5,3.2-4.9,4c-1.4,1.4-3.4,1.9-5.1,1.9c-3.3,0-4.7-2.2-4.7-4.1c0-1.5,0.8-2.6,1.7-3
			c1.8-3.2,3-6.4,4-9.6l4.8-0.6c0.4,8.4,0.7,9.6,0.7,11.8c0,0.5,0,0.8-0.1,1.2c0.9-0.5,1.7-1.1,2.3-1.6H171.1z M159-277
			c-0.3,0-0.7-0.1-0.9-0.4c0,1.5,0.5,2.3,2,2.3c1.4,0,2.8-0.7,2.8-3c0-1.7-0.3-2.7-0.6-7.7c-0.6,2.1-1.5,4-2.6,6.1
			c0.4,0.2,0.7,0.6,0.7,1.1C160.4-277.8,159.8-277,159-277z"/>
		<path class="st0" d="M177.7-294l-1.1,5.1h1.9l-0.3,1.3h-1.9l-2.1,9.7c-0.1,0.4-0.1,0.7-0.1,1c0,0.9,0.4,1.2,1.3,1.2
			c1.3,0,2.4-1.2,2.9-2.8h1.4c-1.8,5.3-5,6-6.8,6c-1.9,0-3.5-1.2-3.5-3.9c0-0.6,0.1-1.3,0.3-2.1l1.9-9.1h-1.1l0.3-1.3h1.1l1-4.5
			L177.7-294z"/>
		<path class="st0" d="M193.9-288.9l-2.3,11c-0.1,0.4-0.1,0.7-0.1,1c0,0.9,0.4,1.4,1.3,1.4c1.3,0,2.1-1.4,2.6-3h1.4
			c-1.8,5.3-4.7,6-6.5,6c-1.8,0-3-1-3.2-3c-1,1.5-2.5,3-4.8,3c-2.2,0-4.3-1.4-4.3-5.2c0-4.4,2.7-11.3,8.3-11.3
			c1.8,0,2.6,0.7,2.6,1.6v0.2l0.4-1.7H193.9z M182.7-278.2c0,2.5,1,2.5,1.6,2.5c0.9,0,2.3-1,2.7-2.8l1.5-7.3c0-0.4-0.3-1.2-1.3-1.2
			C184.5-287.1,182.7-281.3,182.7-278.2z"/>
		<path class="st0" d="M210.2-288.9l-2.3,11c-0.1,0.4-0.1,0.7-0.1,1c0,0.9,0.4,1.2,1.3,1.2c1.3,0,2.1-1.2,2.6-2.8h1.4
			c-1.8,5.3-4.7,6-6.5,6c-1.8,0-3-1.1-3.2-3.1c-1.6,2.6-3.4,3.1-4.8,3.1c-1.9,0-3.5-1.2-3.5-3.9c0-0.6,0.1-1.3,0.3-2.1l2.2-10.4h4.6
			l-2.3,11c-0.1,0.3-0.1,0.6-0.1,0.9c0,0.7,0.3,1.3,1,1.3c1.3,0,2.1-1.2,2.6-2.8l2.2-10.4H210.2z"/>
		<path class="st0" d="M218.5-288.9l-0.4,2c1.1-1,2.4-2,3.9-2c1.5,0,2.2,1.2,2.2,2.4c0,1.1-0.7,2.4-2.3,2.4c-1.8,0-0.9-2.1-1.9-2.1
			s-1.5,0.5-2.4,1.2l-2.6,12.3h-4.6l3.4-16.1H218.5z"/>
		<path class="st0" d="M239.3-288.9l-2.3,11c-0.1,0.4-0.1,0.7-0.1,1c0,0.9,0.4,1.4,1.3,1.4c1.3,0,2.1-1.4,2.6-3h1.4
			c-1.8,5.3-4.7,6-6.5,6c-1.8,0-3-1-3.2-3c-1,1.5-2.5,3-4.8,3c-2.2,0-4.3-1.4-4.3-5.2c0-4.4,2.7-11.3,8.3-11.3
			c1.8,0,2.6,0.7,2.6,1.6v0.2l0.4-1.7H239.3z M228.1-278.2c0,2.5,1,2.5,1.6,2.5c0.9,0,2.3-1,2.7-2.8l1.5-7.3c0-0.4-0.3-1.2-1.3-1.2
			C229.9-287.1,228.1-281.3,228.1-278.2z"/>
		<path class="st0" d="M248.9-286.1c-1.2,0-2,1.4-2.5,3l-2.2,10.4h-4.6l3.4-16.1h4.6l-0.4,1.7c1.4-1.5,2.8-1.8,3.8-1.8
			c2.1,0,3.6,1.1,3.6,3.6c0,2.6-1.5,6.5-1.5,8.3c0,0.8,0.3,1.4,1.3,1.4c1.4,0,2-1.2,2.7-2.8h1.4c-1.8,5.3-4.3,6-6,6
			c-2.8,0-3.8-1.8-3.8-3.6c0-2.2,1.5-6.2,1.5-8.2C250.1-285.5,249.7-286.1,248.9-286.1z"/>
		<path class="st0" d="M265-294l-1.1,5.1h1.9l-0.3,1.3h-1.9l-2.1,9.7c-0.1,0.4-0.1,0.7-0.1,1c0,0.9,0.4,1.2,1.3,1.2
			c1.3,0,2.4-1.2,2.9-2.8h1.4c-1.8,5.3-5,6-6.8,6c-1.9,0-3.5-1.2-3.5-3.9c0-0.6,0.1-1.3,0.3-2.1l1.9-9.1h-1.1l0.3-1.3h1.1l1-4.5
			L265-294z"/>
		<path class="st0" d="M275.1-289.9c0.4,8.4,0.7,9.6,0.7,11.8c0,4.2-3.8,5.6-6.5,5.6c-3.3,0-4.7-2.2-4.7-4.1c0-1.5,0.8-2.6,1.7-3
			c1.8-3.2,3-6.4,4-9.6L275.1-289.9z M267.2-277c-0.3,0-0.7-0.1-0.9-0.4c0,1.5,0.5,2.3,2,2.3s2.8-0.7,2.8-3c0-1.7-0.3-2.7-0.6-7.7
			c-0.6,2.1-1.5,4-2.6,6.1c0.4,0.2,0.7,0.6,0.7,1.1C268.7-277.8,268.1-277,267.2-277z"/>
	</g>
</g>
</svg>
