<?xml version="1.0" encoding="utf-8"?>
<!-- Generator: Adobe Illustrator 19.2.1, SVG Export Plug-In . SVG Version: 6.00 Build 0)  -->
<svg version="1.1" id="Layer_1" xmlns="http://www.w3.org/2000/svg" xmlns:xlink="http://www.w3.org/1999/xlink" x="0px" y="0px"
	 viewBox="0 0 432 252" style="enable-background:new 0 0 432 252;" xml:space="preserve">
<style type="text/css">
	.st0{fill:#FFFFFF;}
</style>
<g>
	<g>
		<path class="st0" d="M32.5,79.3h17v50h-17V79.3z"/>
		<path class="st0" d="M56.6,79.3h13.1l13.8,19.3V79.3h15.7v50H86l-13.7-19.2v19.2H56.6V79.3z"/>
		<path class="st0" d="M105.6,98h19.8v12.5h-19.8V98z"/>
		<path class="st0" d="M131.4,104.3c0-3.6,0.7-7,2.1-10.2c1.4-3.2,3.2-6,5.6-8.4c2.4-2.4,5.2-4.2,8.4-5.6c3.2-1.4,6.6-2.1,10.2-2.1
			s7,0.7,10.2,2.1c3.2,1.4,6,3.3,8.4,5.6c2.4,2.4,4.2,5.2,5.6,8.4c1.4,3.2,2.1,6.6,2.1,10.2s-0.7,7-2.1,10.2c-1.4,3.2-3.3,6-5.6,8.4
			c-2.4,2.4-5.2,4.3-8.4,5.6c-3.2,1.4-6.6,2.1-10.2,2.1s-7-0.7-10.2-2.1c-3.2-1.4-6-3.2-8.4-5.6c-2.4-2.4-4.3-5.2-5.6-8.4
			C132,111.3,131.4,107.9,131.4,104.3z M147.1,104.3c0,1.5,0.3,2.8,0.8,4.1c0.5,1.3,1.3,2.4,2.2,3.3c0.9,1,2.1,1.7,3.3,2.2
			c1.3,0.6,2.6,0.8,4.1,0.8c1.4,0,2.8-0.3,4.1-0.8c1.3-0.5,2.4-1.3,3.3-2.2c0.9-0.9,1.7-2.1,2.2-3.3c0.5-1.3,0.8-2.6,0.8-4.1
			c0-1.4-0.3-2.8-0.8-4.1c-0.6-1.3-1.3-2.4-2.2-3.3c-1-0.9-2.1-1.7-3.3-2.2c-1.3-0.5-2.6-0.8-4.1-0.8c-1.5,0-2.8,0.3-4.1,0.8
			c-1.3,0.6-2.4,1.3-3.3,2.2c-1,1-1.7,2.1-2.2,3.3C147.4,101.5,147.1,102.9,147.1,104.3z"/>
		<path class="st0" d="M189.9,79.3h17.2c3.2,0,6.2,0.4,8.9,1.3c2.7,0.9,5.1,2.1,7.1,3.8c2,1.6,3.6,3.7,4.7,6.1
			c1.1,2.4,1.7,5.2,1.7,8.4c0,2.5-0.4,4.6-1.1,6.4c-0.7,1.8-1.5,3.2-2.3,4.4c-1,1.3-2.1,2.4-3.4,3.3l9.4,16.5h-18.8l-7.5-12.7v12.7
			h-16V79.3z M205.8,103.9h0.8c1.9,0,3.5-0.4,4.8-1.3c1.3-0.8,2-2.3,2-4.3c0-2-0.7-3.4-2-4.3c-1.3-0.8-2.9-1.3-4.8-1.3h-0.8V103.9z"
			/>
		<path class="st0" d="M234.7,98h19.8v12.5h-19.8V98z"/>
		<path class="st0" d="M260.5,104.3c0-3.6,0.7-7,2.1-10.2c1.4-3.2,3.2-6,5.6-8.4c2.4-2.4,5.2-4.2,8.4-5.6c3.2-1.4,6.6-2.1,10.2-2.1
			s7,0.7,10.2,2.1c3.2,1.4,6,3.3,8.4,5.6c2.4,2.4,4.2,5.2,5.6,8.4c1.4,3.2,2.1,6.6,2.1,10.2s-0.7,7-2.1,10.2c-1.4,3.2-3.3,6-5.6,8.4
			c-2.4,2.4-5.2,4.3-8.4,5.6c-3.2,1.4-6.6,2.1-10.2,2.1s-7-0.7-10.2-2.1c-3.2-1.4-6-3.2-8.4-5.6c-2.4-2.4-4.3-5.2-5.6-8.4
			C261.2,111.3,260.5,107.9,260.5,104.3z M276.3,104.3c0,1.5,0.3,2.8,0.8,4.1c0.5,1.3,1.3,2.4,2.2,3.3c0.9,1,2.1,1.7,3.3,2.2
			c1.3,0.6,2.6,0.8,4.1,0.8c1.4,0,2.8-0.3,4.1-0.8c1.3-0.5,2.4-1.3,3.3-2.2c0.9-0.9,1.7-2.1,2.2-3.3c0.5-1.3,0.8-2.6,0.8-4.1
			c0-1.4-0.3-2.8-0.8-4.1c-0.6-1.3-1.3-2.4-2.2-3.3c-1-0.9-2.1-1.7-3.3-2.2c-1.3-0.5-2.6-0.8-4.1-0.8c-1.5,0-2.8,0.3-4.1,0.8
			c-1.3,0.6-2.4,1.3-3.3,2.2c-1,1-1.7,2.1-2.2,3.3C276.5,101.5,276.3,102.9,276.3,104.3z"/>
		<path class="st0" d="M339.5,130.6c-3.1,0-6-0.4-8.6-1.2c-2.5-0.8-4.7-2-6.5-3.6c-1.8-1.6-3.2-3.6-4.2-6.1c-1-2.4-1.5-5.3-1.5-8.6
			V79.3h16v31.1c0,1.8,0.4,3.1,1.1,4c0.7,0.9,1.9,1.4,3.6,1.4c1.7,0,2.9-0.5,3.6-1.4c0.7-0.9,1.1-2.3,1.1-4V79.3h16v31.8
			c0,3.3-0.5,6.2-1.5,8.6c-1,2.5-2.4,4.5-4.2,6.1c-1.8,1.6-4,2.8-6.6,3.6C345.5,130.2,342.6,130.6,339.5,130.6z"/>
		<path class="st0" d="M373.8,92.4h-9.2V79.3h35v13.1h-9.2v36.9h-16.5V92.4z"/>
	</g>
	<g>
		<path class="st0" d="M92.9,146.7l-1.5,6.9h0.2c2.5,0,4.3-2.9,4.3-5.2c0-1.7-1-3.1-3.3-3.1c-4.9,0-8.1,2.7-8.1,7.3
			c0,1.5,0.4,1.8,0.4,2c-2.1,0-3.2-0.8-3.2-2.9c0-4,5.5-7.8,10.5-7.8c4.7,0,6.8,2.3,6.8,4.8c0,1.8-1.2,3.9-3.2,5.1
			c1.6,0.4,2.1,1.6,2.1,3c0,2.5-1.5,5.7-1.5,7.6c0,0.9,0.5,1.7,1.2,2c-1.3,0.4-2.2,0.5-3,0.5c-2,0-2.3-1-2.3-2c0-2,1.6-5.6,1.6-7.9
			c0-1.2-0.5-2-1.8-2c-0.3,0-0.6,0.1-1,0.1l-2.4,11.3h-4.3l4.1-19.1L92.9,146.7z"/>
		<path class="st0" d="M105.8,164.1c2.4,0,3.8-1.3,5.3-3h1c-1.7,2.8-4.3,5.5-8.2,5.5c-2.8,0-4.7-1.4-4.7-4.8c0-3.4,2-10.7,8.1-10.7
			c2.7,0,3.3,1.4,3.3,2.9c0,3.5-3.3,6.1-6.9,6.3c0,0.4-0.1,0.8-0.1,1.2C103.6,163.6,104.4,164.1,105.8,164.1z M107.5,152.7
			c-1.5,0-3,3.2-3.6,6.2c2.3-0.2,4.4-2.5,4.4-5C108.3,153.2,108.1,152.7,107.5,152.7z"/>
		<path class="st0" d="M119.8,154c0-0.7-0.3-1.2-0.8-1.2c-1.9,0-3.8,5.5-3.8,8.8c0,2,0.7,2.5,2.2,2.5c2.4,0,3.8-1.3,5.3-3h1
			c-1.7,2.8-4.3,5.5-8.2,5.5c-2.8,0-4.7-1.4-4.7-4.8c0-3.5,2-10.7,8.1-10.7c2.7,0,3.3,1.4,3.3,2.8c0,1.5-0.7,2.2-1.6,2.2
			c-0.3,0-0.7-0.1-1-0.4C119.7,155.1,119.8,154.5,119.8,154z"/>
		<path class="st0" d="M128.8,164.1c2.4,0,3.8-1.3,5.3-3h1c-1.7,2.8-4.3,5.5-8.2,5.5c-2.8,0-4.7-1.4-4.7-4.8c0-3.4,2-10.7,8.1-10.7
			c2.7,0,3.3,1.4,3.3,2.9c0,3.5-3.3,6.1-6.9,6.3c0,0.4-0.1,0.8-0.1,1.2C126.7,163.6,127.4,164.1,128.8,164.1z M130.6,152.7
			c-1.5,0-3,3.2-3.6,6.2c2.3-0.2,4.4-2.5,4.4-5C131.3,153.2,131.1,152.7,130.6,152.7z"/>
		<path class="st0" d="M140.5,151.4l-2.2,10.2c-0.1,0.4-0.1,0.7-0.1,1c0,0.8,0.4,1.1,1.2,1.1c1.2,0,2.2-1.1,2.7-2.6h1.3
			c-1.7,4.9-4.7,5.5-6.3,5.5c-1.8,0-3.2-1.1-3.2-3.6c0-0.6,0.1-1.2,0.2-1.9l2-9.6H140.5z M139.2,145c1.3,0,2.4,1.1,2.4,2.4
			s-1.1,2.4-2.4,2.4s-2.4-1.1-2.4-2.4S137.8,145,139.2,145z"/>
		<path class="st0" d="M148.8,150.3l-0.5,2.2c0.9-0.8,2-1.3,3.5-1.3c2,0,3.7,1.2,3.7,4.7c0,4-1.6,10.6-7.4,10.6
			c-1.5,0-2.2-0.5-2.5-1.1l-1.6,7.3l-4.5,1.1l5-23.6H148.8z M151.3,155.9c0-2.3-1-2.5-1.5-2.5c-0.7,0-1.5,0.5-2.1,1.5l-1.8,8.4
			c0.1,0.3,0.5,0.7,1.1,0.7C150.3,164,151.3,158.7,151.3,155.9z"/>
		<path class="st0" d="M162.4,164.1c2.4,0,3.8-1.3,5.3-3h1c-1.7,2.8-4.3,5.5-8.2,5.5c-2.8,0-4.7-1.4-4.7-4.8c0-3.4,2-10.7,8.1-10.7
			c2.7,0,3.3,1.4,3.3,2.9c0,3.5-3.3,6.1-6.9,6.3c0,0.4-0.1,0.8-0.1,1.2C160.2,163.6,161,164.1,162.4,164.1z M164.1,152.7
			c-1.5,0-3,3.2-3.6,6.2c2.3-0.2,4.4-2.5,4.4-5C164.9,153.2,164.7,152.7,164.1,152.7z"/>
		<path class="st0" d="M176.5,150.5c0.4,7.8,0.7,8.9,0.7,10.9c0,3.9-3.5,5.2-6,5.2c-3.1,0-4.4-2-4.4-3.8c0-1.4,0.8-2.4,1.6-2.8
			c1.7-3,2.8-5.9,3.7-8.9L176.5,150.5z M169.2,162.5c-0.3,0-0.7-0.1-0.8-0.4c0,1.4,0.5,2.1,1.8,2.1s2.6-0.7,2.6-2.8
			c0-1.6-0.3-2.5-0.6-7.1c-0.6,1.9-1.4,3.7-2.4,5.7c0.4,0.2,0.7,0.5,0.7,1.1C170.5,161.8,169.9,162.5,169.2,162.5z"/>
		<path class="st0" d="M204.2,154c0,1.7-2.1,3.8-4.6,4.2c-2.3,8.2-6.4,8.4-9.4,8.4c-4.1,0-6.2-3-6.2-6.1c0-2.9,1.8-5.9,5.4-6.6
			c-2-1.1-3-2.9-3-4.6c0-2.7,2.4-5.4,6.7-5.4c2.8,0,5.5,1.1,5.5,4c0,1.6-0.6,2.8-2.1,2.8c-0.5,0-1.1-0.1-1.7-0.8
			c0.8-0.2,1.3-1.7,1.3-2.5c0-0.5-0.1-2.2-2-2.2c-2.2,0-3.7,1.7-3.7,3.7c0,1.7,1.1,3.7,4,4.9c-3.8,1.6-5.2,4-5.2,6
			c0,2.2,1.6,4,3.5,4c2.1,0,4.5-1.3,5.4-5.6c-0.8-0.1-1.4-0.2-2.1-0.2c-1.3,0-2.2,0.5-2.8,1.4l-0.2,0c0.6-2.5,2.7-4.2,5.8-4.2
			c0.8,0,1.5,0.1,2.3,0.1c1.1,0,2.3-0.4,2.9-1.3H204.2z"/>
		<path class="st0" d="M222,146.7l-1.5,6.9h0.2c2.5,0,4.3-2.9,4.3-5.2c0-1.7-1-3.1-3.3-3.1c-4.9,0-8.1,2.7-8.1,7.3
			c0,1.5,0.4,1.8,0.4,2c-2.1,0-3.2-0.8-3.2-2.9c0-4,5.5-7.8,10.5-7.8c4.7,0,6.8,2.3,6.8,4.8c0,1.8-1.2,3.9-3.2,5.1
			c1.6,0.4,2.1,1.6,2.1,3c0,2.5-1.5,5.7-1.5,7.6c0,0.9,0.5,1.7,1.2,2c-1.3,0.4-2.2,0.5-3,0.5c-2,0-2.3-1-2.3-2c0-2,1.6-5.6,1.6-7.9
			c0-1.2-0.5-2-1.8-2c-0.3,0-0.6,0.1-1,0.1l-2.4,11.3h-4.3l4.1-19.1L222,146.7z"/>
		<path class="st0" d="M234.9,164.1c2.4,0,3.8-1.3,5.3-3h1c-1.7,2.8-4.3,5.5-8.2,5.5c-2.8,0-4.7-1.4-4.7-4.8c0-3.4,2-10.7,8.1-10.7
			c2.7,0,3.3,1.4,3.3,2.9c0,3.5-3.3,6.1-6.9,6.3c0,0.4-0.1,0.8-0.1,1.2C232.8,163.6,233.5,164.1,234.9,164.1z M236.7,152.7
			c-1.5,0-3,3.2-3.6,6.2c2.3-0.2,4.4-2.5,4.4-5C237.4,153.2,237.2,152.7,236.7,152.7z"/>
		<path class="st0" d="M252.9,161c-1.6,1.8-3.2,2.9-4.6,3.7c-1.3,1.3-3.2,1.8-4.7,1.8c-3.1,0-4.4-2-4.4-3.8c0-1.4,0.8-2.4,1.6-2.8
			c1.7-3,2.8-5.9,3.7-8.9l4.4-0.6c0.4,7.8,0.7,8.9,0.7,10.9c0,0.4,0,0.8-0.1,1.1c0.8-0.5,1.6-1,2.2-1.5H252.9z M241.7,162.5
			c-0.3,0-0.7-0.1-0.8-0.4c0,1.4,0.5,2.1,1.8,2.1s2.6-0.7,2.6-2.8c0-1.6-0.3-2.5-0.6-7.1c-0.6,1.9-1.4,3.7-2.4,5.7
			c0.4,0.2,0.7,0.5,0.7,1.1C243,161.8,242.4,162.5,241.7,162.5z"/>
		<path class="st0" d="M259.1,146.7l-1,4.7h1.8l-0.2,1.2h-1.8l-1.9,9c-0.1,0.4-0.1,0.7-0.1,1c0,0.8,0.4,1.1,1.2,1.1
			c1.2,0,2.2-1.1,2.7-2.6h1.3c-1.7,4.9-4.7,5.5-6.3,5.5c-1.8,0-3.2-1.1-3.2-3.6c0-0.6,0.1-1.2,0.2-1.9l1.8-8.4h-1l0.2-1.2h1l0.9-4.1
			L259.1,146.7z"/>
		<path class="st0" d="M274.1,151.4l-2.2,10.2c-0.1,0.4-0.1,0.7-0.1,1c0,0.8,0.4,1.3,1.2,1.3c1.2,0,2-1.3,2.4-2.8h1.3
			c-1.7,4.9-4.4,5.5-6,5.5c-1.7,0-2.8-1-2.9-2.8c-0.9,1.4-2.3,2.8-4.5,2.8c-2,0-4-1.3-4-4.8c0-4,2.5-10.5,7.7-10.5
			c1.7,0,2.4,0.7,2.4,1.5v0.2l0.3-1.6H274.1z M263.7,161.3c0,2.3,1,2.3,1.5,2.3c0.9,0,2.1-0.9,2.5-2.6l1.4-6.8
			c0-0.4-0.3-1.1-1.2-1.1C265.4,153.1,263.7,158.5,263.7,161.3z"/>
		<path class="st0" d="M289.2,151.4l-2.2,10.2c-0.1,0.4-0.1,0.7-0.1,1c0,0.8,0.4,1.1,1.2,1.1c1.2,0,2-1.1,2.4-2.6h1.3
			c-1.7,4.9-4.4,5.5-6,5.5c-1.7,0-2.8-1-3-2.9c-1.5,2.5-3.2,2.9-4.4,2.9c-1.8,0-3.2-1.1-3.2-3.6c0-0.6,0.1-1.2,0.2-1.9l2-9.6h4.3
			l-2.2,10.2c-0.1,0.3-0.1,0.6-0.1,0.8c0,0.7,0.2,1.2,0.9,1.2c1.2,0,1.9-1.1,2.4-2.6l2-9.6H289.2z"/>
		<path class="st0" d="M297,151.4l-0.4,1.9c1-0.9,2.2-1.9,3.6-1.9c1.4,0,2.1,1.1,2.1,2.2c0,1-0.7,2.2-2.2,2.2c-1.7,0-0.8-2-1.7-2
			s-1.4,0.5-2.2,1.1l-2.4,11.4h-4.3l3.2-15H297z"/>
		<path class="st0" d="M316.3,151.4l-2.2,10.2c-0.1,0.4-0.1,0.7-0.1,1c0,0.8,0.4,1.3,1.2,1.3c1.2,0,2-1.3,2.4-2.8h1.3
			c-1.7,4.9-4.4,5.5-6,5.5c-1.7,0-2.8-1-2.9-2.8c-0.9,1.4-2.3,2.8-4.5,2.8c-2,0-4-1.3-4-4.8c0-4,2.5-10.5,7.7-10.5
			c1.7,0,2.4,0.7,2.4,1.5v0.2l0.3-1.6H316.3z M306,161.3c0,2.3,1,2.3,1.5,2.3c0.9,0,2.1-0.9,2.5-2.6l1.4-6.8c0-0.4-0.3-1.1-1.2-1.1
			C307.6,153.1,306,158.5,306,161.3z"/>
		<path class="st0" d="M325.2,154c-1.1,0-1.9,1.3-2.3,2.8l-2,9.6h-4.3l3.2-15h4.3l-0.3,1.6c1.3-1.4,2.6-1.7,3.5-1.7
			c1.9,0,3.3,1,3.3,3.4c0,2.4-1.4,6.1-1.4,7.7c0,0.8,0.3,1.3,1.2,1.3c1.3,0,1.9-1.1,2.5-2.6h1.3c-1.7,4.9-4,5.5-5.6,5.5
			c-2.6,0-3.5-1.7-3.5-3.4c0-2,1.4-5.7,1.4-7.6C326.3,154.6,326,154,325.2,154z"/>
		<path class="st0" d="M340.2,146.7l-1,4.7h1.8l-0.2,1.2H339l-1.9,9c-0.1,0.4-0.1,0.7-0.1,1c0,0.8,0.4,1.1,1.2,1.1
			c1.2,0,2.2-1.1,2.7-2.6h1.3c-1.7,4.9-4.7,5.5-6.3,5.5c-1.8,0-3.2-1.1-3.2-3.6c0-0.6,0.1-1.2,0.2-1.9l1.8-8.4h-1l0.2-1.2h1l0.9-4.1
			L340.2,146.7z"/>
		<path class="st0" d="M349.6,150.5c0.4,7.8,0.7,8.9,0.7,10.9c0,3.9-3.5,5.2-6,5.2c-3.1,0-4.4-2-4.4-3.8c0-1.4,0.8-2.4,1.6-2.8
			c1.7-3,2.8-5.9,3.7-8.9L349.6,150.5z M342.3,162.5c-0.3,0-0.7-0.1-0.8-0.4c0,1.4,0.5,2.1,1.8,2.1s2.6-0.7,2.6-2.8
			c0-1.6-0.3-2.5-0.6-7.1c-0.6,1.9-1.4,3.7-2.4,5.7c0.4,0.2,0.7,0.5,0.7,1.1C343.6,161.8,343.1,162.5,342.3,162.5z"/>
	</g>
</g>
</svg>
