<?xml version="1.0" encoding="utf-8"?>
<!-- Generator: Adobe Illustrator 19.2.1, SVG Export Plug-In . SVG Version: 6.00 Build 0)  -->
<svg version="1.1" id="Layer_1" xmlns="http://www.w3.org/2000/svg" xmlns:xlink="http://www.w3.org/1999/xlink" x="0px" y="0px"
	 viewBox="0 0 252 252" style="enable-background:new 0 0 252 252;" xml:space="preserve">
<style type="text/css">
	.st0{fill:none;}
	.st1{fill:#FFFFFF;stroke:#FFFFFF;stroke-miterlimit:10;}
</style>
<g>
	<path class="st0" d="M85.9,160.5c-4.7,0-8.5,1.5-11.5,4.4s-4.5,6.7-4.5,11.2c0,4.4,1.5,8.1,4.5,11c3,2.9,6.8,4.4,11.4,4.4
		c4.6,0,8.4-1.5,11.4-4.5s4.6-6.7,4.6-11.2c0-4.3-1.5-8-4.6-10.9S90.4,160.5,85.9,160.5z"/>
	<path class="st0" d="M126,80.9c-30.1,0-54.8,23.9-56.1,53.7h112.3C180.8,104.8,156.1,80.9,126,80.9z"/>
	<path class="st0" d="M101.4,191c-4.2,4-9.6,5.9-16.1,5.9c-6.2,0-11.3-2-15.4-5.9c-4.1-4-6.2-8.9-6.2-14.9c0-6.1,2.1-11.2,6.2-15.2
		c4.1-4,9.4-6,15.7-6c6.3,0,11.6,2,15.8,6s6.3,9,6.3,15.1S105.7,187,101.4,191z M149.4,178.7c0,3.1-0.2,5.5-0.7,7.1s-1,2.9-1.7,4
		s-1.5,2-2.5,2.9c-3.2,2.8-7.5,4.2-12.7,4.2c-5.3,0-9.6-1.4-12.8-4.2c-1-0.9-1.8-1.8-2.5-2.9s-1.2-2.4-1.7-3.9s-0.7-4-0.7-7.3v-23.2
		h5.9v23.2c0,3.8,0.4,6.5,1.3,8s2.2,2.7,4,3.6s3.9,1.4,6.4,1.4c3.5,0,6.3-0.9,8.5-2.7c1.2-1,2-2.1,2.5-3.5s0.8-3.6,0.8-6.8v-23.2
		h5.9V178.7z M188.2,160.6h-14.3v35.8H168v-35.8h-14v-5.2h34.2V160.6z M51.4,134.6h13.4c1.3-31.8,26.9-57.4,58.6-58.6v-8h-7.1v-5
		h19.2v5h-7.1v8c31.8,1.3,57.4,26.9,58.6,58.6h13.4v5H51.4V134.6z"/>
	<g>
		<path class="st1" d="M85.9,160.5c-4.7,0-8.5,1.5-11.5,4.4s-4.5,6.7-4.5,11.2c0,4.4,1.5,8.1,4.5,11c3,2.9,6.8,4.4,11.4,4.4
			c4.6,0,8.4-1.5,11.4-4.5s4.6-6.7,4.6-11.2c0-4.3-1.5-8-4.6-10.9S90.4,160.5,85.9,160.5z"/>
		<path class="st1" d="M126,80.9c-30.1,0-54.8,23.9-56.1,53.7h112.3C180.8,104.8,156.1,80.9,126,80.9z"/>
		<path class="st1" d="M15.5,15.5v221h221v-221H15.5z M101.4,191c-4.2,4-9.6,5.9-16.1,5.9c-6.2,0-11.3-2-15.4-5.9
			c-4.1-4-6.2-8.9-6.2-14.9c0-6.1,2.1-11.2,6.2-15.2c4.1-4,9.4-6,15.7-6c6.3,0,11.6,2,15.8,6s6.3,9,6.3,15.1S105.7,187,101.4,191z
			 M149.4,178.7c0,3.1-0.2,5.5-0.7,7.1s-1,2.9-1.7,4s-1.5,2-2.5,2.9c-3.2,2.8-7.5,4.2-12.7,4.2c-5.3,0-9.6-1.4-12.8-4.2
			c-1-0.9-1.8-1.8-2.5-2.9s-1.2-2.4-1.7-3.9s-0.7-4-0.7-7.3v-23.2h5.9v23.2c0,3.8,0.4,6.5,1.3,8s2.2,2.7,4,3.6s3.9,1.4,6.4,1.4
			c3.5,0,6.3-0.9,8.5-2.7c1.2-1,2-2.1,2.5-3.5s0.8-3.6,0.8-6.8v-23.2h5.9V178.7z M188.2,160.6h-14.3v35.8H168v-35.8h-14v-5.2h34.2
			V160.6z M200.6,139.6H51.4v-5h13.4c1.3-31.8,26.9-57.4,58.6-58.6v-8h-7.1v-5h19.2v5h-7.1v8c31.8,1.3,57.4,26.9,58.6,58.6h13.4
			V139.6z"/>
	</g>
</g>
</svg>
